<?xml version="1.0" encoding="UTF-8"?>
<svg id="Layer_1" data-name="Layer 1" xmlns="http://www.w3.org/2000/svg" viewBox="0 0 612.1 792.8">
  <defs>
    <style>
      .cls-1 {
        fill: none;
        stroke: #fff;
        stroke-linecap: round;
        stroke-linejoin: round;
      }
    </style>
  </defs>
  <path class="cls-1" d="m10.11,291.8v3.82"/>
  <path class="cls-1" d="m59.17,174.52c2.8,1.83,5.05,4.3,7.65,6.37"/>
  <path class="cls-1" d="m24.12,263.76c.33,1.37-.97,2.46-.64,3.82"/>
  <path class="cls-1" d="m138.81,302c2.93.83,4.92,3.28,7.65,4.46"/>
  <path class="cls-1" d="m27.95,247.18c.34,1.77-.98,3.33-.64,5.1"/>
  <path class="cls-1" d="m72.55,749.47c-1.13,3.14-2.96,5.99-3.83,9.24-2.21,8.3-.9,16.34,1.95,24.21.84,2.31,2.09,4.47,3.15,6.71"/>
  <path class="cls-1" d="m28.58,772.42v3.82"/>
  <path class="cls-1" d="m35.59,247.18c.34,1.77-.98,3.33-.64,5.1"/>
  <path class="cls-1" d="m32.41,284.79c-.33,1.36.73,2.5.64,3.82"/>
  <path class="cls-1" d="m48.34,693.38v5.1"/>
  <path class="cls-1" d="m61.72,690.83v7.65"/>
  <path class="cls-1" d="m611.59,704.85c-.41,1.57-1.36,2.75-2.54,3.84-5.57,5.11-10.51,10.83-14.93,16.92-5.39,7.43-9.18,15.56-7.66,25.13.79,4.95,3.11,9.32,6,13.4,4.81,6.8,10.73,12.63,16.28,18.78,1.15,1.28,2.42,2.41,2.85,4.16"/>
  <path class="cls-1" d="m59.17,750.75c-1.25,3.62-3.16,6.98-3.86,10.83-1.18,6.42-.57,12.59,1.22,18.84.99,3.46,2.86,6.48,3.92,9.85"/>
  <path class="cls-1" d="m98.04,733.54c-4.99,5.55-9.96,11.02-13.49,17.79-4.84,9.26-4.45,18.6-1.71,28.08,1.29,4.45,3.61,8.58,5.97,12.61"/>
  <path class="cls-1" d="m185.01,44.16c-.46,1.37-2.03,1.86-2.55,3.19"/>
  <path class="cls-1" d="m135.31,652.26c6.2,7.47,11.48,15.51,14.3,24.87,3.93,13.04,1.22,24.84-7.3,35.36-1.75,2.17-3.6,4.26-5.41,6.38"/>
  <path class="cls-1" d="m25.4,105.67c-1.93,2.54-4.46,4.62-5.73,7.65"/>
  <path class="cls-1" d="m43.88,247.18c.19,1.75-1.05,3.32-.64,5.1"/>
  <path class="cls-1" d="m125.43,568.44c-.54,1.51-2.33,2-2.87,3.51"/>
  <path class="cls-1" d="m151.56,387.42c-1.33.8-2.39,1.86-3.19,3.19"/>
  <path class="cls-1" d="m611.59,91.01c-1.03,8.47-2.06,16.93-1.6,25.5.24,4.5,1.52,8.87,1.6,13.39"/>
  <path class="cls-1" d="m67.45,55.32c-.74,1.94-2.94,2.64-3.82,4.46"/>
  <path class="cls-1" d="m104.41,160.49c8.26,4.47,15.78,9.93,20.98,17.88,7.85,12.01,7.84,24.55,1.63,37.25-1.1,2.26-2.33,4.47-3.5,6.7"/>
  <path class="cls-1" d="m51.52,156.03c2.44,1.59,4.88,3.19,7.33,4.78"/>
  <path class="cls-1" d="m172.58,381.04c-1.59,1.17-3.19,2.34-4.78,3.51"/>
  <path class="cls-1" d="m78.28,16.44c-.11,1.13,1.05,2,.64,3.19"/>
  <path class="cls-1" d="m136.27,405.9c-2.62,5.22-5.04,10.53-6.37,16.25-2.49,10.73-.7,20.82,4.8,30.26,2.43,4.17,5,8.27,7.94,12.13"/>
  <path class="cls-1" d="m131.81,290.53c1.06.64,2.12,1.27,3.19,1.91"/>
  <path class="cls-1" d="m75.1,571.63c-.88,1.82-3.08,2.52-3.82,4.46"/>
  <path class="cls-1" d="m142.32,647.17c1.81,2.44,3.61,4.89,5.42,7.33"/>
  <path class="cls-1" d="m8.83,120.97c-2.11,5.33-3.75,10.73-3.87,16.57-.17,8.26,2.76,15.29,7.7,21.67"/>
  <path class="cls-1" d="m106.96,283.52c1.06.64,2.12,1.27,3.19,1.91"/>
  <path class="cls-1" d="m97.4,275.87c2.34,1.91,4.67,3.82,7.01,5.74"/>
  <path class="cls-1" d="m142.96,573.86c-3.69,5.7-6.95,11.59-8.96,18.15-2.42,7.91-2.31,15.74.04,23.6,2.59,8.68,7.45,16.16,12.42,23.58"/>
  <path class="cls-1" d="m611.59,70.62c-.13,4.54-2.75,8.18-4.51,12.09-5.28,11.69-8.19,23.84-7.21,36.67.77,10.09,4.06,19.48,9.53,28.03.97,1.52,1.98,2.96,2.2,4.8"/>
  <path class="cls-1" d="m132.12,230.93c-3.11,4.13-6.43,8.01-8.41,13.02-2.69,6.77-1.46,12.75,2.08,18.52,5.51,8.98,13.02,16.2,20.99,22.97,1.09.93,1.87,2.2,3.19,2.87"/>
  <path class="cls-1" d="m83.38,657.68c1.75,1.23,3.23,2.72,4.46,4.46"/>
  <path class="cls-1" d="m112.69,237.62c-.85,1.7-1.73,3.38-2.54,5.1-3.59,7.61-.97,14.51,3.32,20.62,3.03,4.31,6.29,8.69,10.69,11.89"/>
  <path class="cls-1" d="m38.14,101.21c-1.39.43-1.79,2.12-3.19,2.55"/>
  <path class="cls-1" d="m165.26,50.54c-2.36,1.88-4.43,4.12-7.01,5.74"/>
  <path class="cls-1" d="m12.66,277.14c.41,1.19-.75,2.06-.64,3.19"/>
  <path class="cls-1" d="m163.35,560.48c-1.91,2.34-3.82,4.67-5.73,7.01"/>
  <path class="cls-1" d="m133.4,709c-1.17,1.59-2.34,3.19-3.5,4.78"/>
  <path class="cls-1" d="m150.92,326.86c3.33,4.02,6.29,8.26,7.63,13.39,1.79,6.83.21,13.15-3.22,19.09-.62,1.07-1.28,2.12-1.87,3.21"/>
  <path class="cls-1" d="m425.54.82c4.04,2.47,6.23,6.65,8.79,10.29,5.14,7.28,9.39,15.15,11.92,23.81,1.83,6.25,3.38,12.6,2.79,19.12-.94,10.42-6.23,18.21-15.21,23.62-6.31,3.81-13.37,5.78-20.06,8.65-3.69,1.58-7.32,3.37-10.6,5.91-6.52,5.04-6.89,11.5-4.09,19.83,2.75,8.19,7.93,14.96,13.11,21.63,12.07,15.53,25.79,29.67,38.47,44.68,7.93,9.39,15.37,19.19,21.28,29.99,2.7,4.93,4.65,10.29,4.61,16.2-.04,5.99-2.34,10.43-7.36,13.74-6.33,4.17-13.49,5.47-20.73,6.67-11.97,1.98-24.26,2.74-35.35,8.31-8.13,4.09-13.42,10.5-15.01,19.72-2.54,14.71,2.08,27.36,10.85,38.89,6.1,8.01,13.42,14.81,20.99,21.4,4.67,4.06,9.12,8.53,12.07,14.02,3.7,6.9,3.33,14.1.42,21.32-4.16,10.34-11.44,18.48-18.88,26.38-11.91,12.66-23.67,25.44-32.32,40.6-4.38,7.67-7.72,15.96-7.75,25.11-.02,6.25,2.13,11.73,6.04,16.58,5.4,6.71,12.4,11.82,18.17,18.16,5.95,6.55,9.78,14.03,10.87,22.94,2.04,16.86-4.4,30.52-15.66,42.38-8.82,9.29-19.34,16.24-30.52,22.41-9.72,5.36-19.62,10.52-28.4,17.45-6.18,4.88-11.27,10.74-13.95,18.19-2.99,8.32-1.4,16.6,2.57,24.14,4.87,9.25,11.88,16.99,19.34,24.27,9.32,9.08,19.44,17.31,28.9,26.23,7.07,6.66,13.91,13.67,17.96,22.85,2.5,5.65,1.47,9.39-3.86,12.46-3.01,1.73-6.27,2.78-9.55,3.84-5.49,1.78-11.15,3.24-15.93,6.68-5.29,3.81-7.95,9.01-4.22,17.23,2.4,5.28,5.59,10.02,9.37,14.25,6.77,7.55,14.29,14.38,21.62,21.39.22.21.82.03,1.25.03"/>
  <path class="cls-1" d="m49.61,200.01c4,7.25,6.63,14.94,6.63,23.27,0,5.58-.71,11.1-2.08,16.59-2.06,8.22-3.14,16.63-2.64,25.16"/>
  <path class="cls-1" d="m132.44,735.45c-5.34,6.3-9.76,13.07-11.49,21.35-1.6,7.66-.51,15.11,2.03,22.28,1.64,4.63,3.83,9.15,6.91,13.1"/>
  <path class="cls-1" d="m149.65,643.66c6.28,9.23,12.51,18.47,16.61,28.99,2.38,6.09,4.11,12.29,4.39,18.82.4,9.37-3.28,17.28-8.85,24.57-2.44,3.2-5.6,5.7-8.01,8.89"/>
  <path class="cls-1" d="m103.13,291.8c1.11.31,1.92,1.37,3.19,1.27"/>
  <path class="cls-1" d="m148.69,554.74c-1,1.92-3.14,2.86-4.14,4.78"/>
  <path class="cls-1" d="m55.03,104.72c-2.53,1.57-3.95,4.13-5.73,6.37"/>
  <path class="cls-1" d="m100.58,6.24c2.06,4.22,4.12,8.44,5.09,13.07,1.54,7.39.72,14.52-2.54,21.35"/>
  <path class="cls-1" d="m28.58,763.5v3.19"/>
  <path class="cls-1" d="m82.74,403.35c-.88,1.82-3.08,2.52-3.82,4.46"/>
  <path class="cls-1" d="m611.59,714.41c-.34,3.73-3,6.27-4.8,9.23-3.69,6.1-6.43,12.47-6.35,19.77.07,6.87,2.6,12.87,6.34,18.5,1.81,2.73,4.19,5.17,4.81,8.59"/>
  <path class="cls-1" d="m34.96,156.03c2.28,1.74,4.17,3.97,6.69,5.42"/>
  <path class="cls-1" d="m611.59,360.01c-1.06,3.88-4.74,5.28-7.37,7.59-6.05,5.3-11.65,11.09-15.11,18.28-4.79,9.96-3.02,19.85,2.4,29.27,4.62,8.02,11.34,14.1,18.23,20.01.92.79,1.52,1.53,1.86,2.61"/>
  <path class="cls-1" d="m170.67,318.57c9.55,8.67,17.6,18.34,21.72,30.9,2.33,7.09,1.44,13.27-3.56,18.82-4.05,4.5-8.95,7.94-14.02,11.16"/>
  <path class="cls-1" d="m92.94,403.35c-.43,1.4-2.12,1.79-2.55,3.19"/>
  <path class="cls-1" d="m17.75,115.87c-3.13,6.22-5.42,12.61-5.15,19.76.18,4.84,1.88,9.13,3.88,13.38"/>
  <path class="cls-1" d="m168.44,554.74c-.92,1.8-2.91,2.67-3.82,4.46"/>
  <path class="cls-1" d="m82.11,177.07c2.39,1.86,4.51,3.98,6.37,6.37"/>
  <path class="cls-1" d="m73.19,681.91c-.11,1.13,1.05,2,.64,3.19"/>
  <path class="cls-1" d="m78.92,300.73c1.49.64,2.97,1.27,4.46,1.91"/>
  <path class="cls-1" d="m126.39,91.97c-4.53,3.09-8.03,7.04-10.9,11.75-2.81,4.62-2.9,12.62,1.23,17.35,5.28,6.05,12.05,9.71,18.98,12.8,9.3,4.14,18.67,8.08,27.64,12.91"/>
  <path class="cls-1" d="m86.89,629.96c1.32,2.43,3.11,4.51,4.78,6.69"/>
  <path class="cls-1" d="m106.32,525.1c.26,1.55-.9,2.91-.64,4.46"/>
  <path class="cls-1" d="m117.79,65.52c-10.33,6.12-21.45,10.62-32.18,15.92-.26.13-.63.02-.95.02"/>
  <path class="cls-1" d="m119.7,665.33c.64,1.06,1.27,2.12,1.91,3.19"/>
  <path class="cls-1" d="m118.43,349.81v6.37"/>
  <path class="cls-1" d="m611.59,546.13c-.75,4.59-3.78,8.1-5.8,12.08-4.29,8.46-6.84,17.34-6.89,26.8-.05,8.76,3.08,16.12,10.76,21.07.66.42,1.74.7,1.61,1.88"/>
  <path class="cls-1" d="m170.35,57.55c-13.95,8.8-29.29,14.71-44.26,21.41-10.97,4.91-22.14,9.47-32.2,16.21-1.52,1.02-2.98,2.12-4.46,3.18"/>
  <path class="cls-1" d="m57.26,627.72c-.22,1.86,2.13,2.61,1.91,4.46"/>
  <path class="cls-1" d="m128.62,487.49c9.13,16.04,8.39,32.07.03,48.14-1.19,2.29-2.42,4.54-3.85,6.68"/>
  <path class="cls-1" d="m91.66,65.52c-1.06.64-2.12,1.27-3.19,1.91"/>
  <path class="cls-1" d="m103.13,301.36c-2.23-.59-4.05-2.2-6.37-2.55"/>
  <path class="cls-1" d="m124.8,673.62c2.45,4.92,3.86,10.25,3.66,15.61-.2,5.18-1.07,10.5-4.28,15-.37.52-.45,1.26-.66,1.9"/>
  <path class="cls-1" d="m34.96,216.59c-.11,1.13,1.05,2,.64,3.19"/>
  <path class="cls-1" d="m121.61,708.68c-1.06,1.49-2.12,2.97-3.19,4.46"/>
  <path class="cls-1" d="m153.15,47.99c-6.26,7.5-14.19,12.82-22.61,17.54-14.34,8.04-29.67,13.95-44.6,20.73-4.28,1.94-8.41,4.23-12.75,6.03"/>
  <path class="cls-1" d="m83.38,575.46c-.43,1.4-2.12,1.79-2.55,3.19"/>
  <path class="cls-1" d="m129.89,296.9c2.29.73,3.96,2.69,6.37,3.19"/>
  <path class="cls-1" d="m114.6,403.35c-6.52,8.46-11.87,17.49-14.36,28.04-1.92,8.15-.42,15.83,2.97,23.23.54,1.17,1.15,2.4,1.83,3.54"/>
  <path class="cls-1" d="m170.99,730.03c-3.82,5.6-7.84,11.12-10.14,17.55-2.28,6.39-2.66,13.08-1.29,19.73,1.85,8.97,5.69,17.13,10.79,24.71"/>
  <path class="cls-1" d="m40.05,108.22c-4.21,5.12-7.29,10.62-7.74,17.52-.36,5.4,1.05,10.11,3.6,14.67"/>
  <path class="cls-1" d="m108.23,321.76c1.62.33,2.73,1.84,4.46,1.91"/>
  <path class="cls-1" d="m37.5,184.08c.43,1.4,2.12,1.79,2.55,3.19"/>
  <path class="cls-1" d="m155.7,396.02c-1.06,1.49-2.43,2.75-3.19,4.46"/>
  <path class="cls-1" d="m112.69,730.99c-1.55,2.45-4.19,3.92-5.73,6.37"/>
  <path class="cls-1" d="m90.39,581.19c-.64,1.06-1.27,2.12-1.91,3.19"/>
  <path class="cls-1" d="m98.67,676.81c1.35,4.18,3.07,8.2,3.26,12.75.27,6.47-1.95,12.18-4.53,17.85"/>
  <path class="cls-1" d="m611.59,263.12c-.24,3.6-2.76,6.1-4.53,8.88-3.51,5.49-6.71,11.03-8.93,17.23-2.91,8.08-1.76,13.63,6.43,18.56,2.7,1.62,6.12,2.65,7.04,6.33"/>
  <path class="cls-1" d="m152.19,363.83c-1.31,2.43-3.48,4.18-5.1,6.37"/>
  <path class="cls-1" d="m86.57,646.85c1.79.92,2.67,2.91,4.46,3.82"/>
  <path class="cls-1" d="m61.08,194.28c6.52,9.79,8.35,20.27,5.88,31.9-1.67,7.87-4.47,15.52-5.17,23.56-.71,8.09.49,15.98,4.43,23.24.29.54.69.96.6,1.62"/>
  <path class="cls-1" d="m412.16.5c2.91,1.42,4.14,4.42,5.98,6.75,6.97,8.83,12.35,18.66,14.9,29.62,2.03,8.73,2.52,17.61-2.97,25.83-4.36,6.53-10.82,9.77-17.6,12.68-6.59,2.82-13.81,3.79-20.38,6.72-2.25,1.01-4.64,1.85-6.66,3.23-6.34,4.33-7.68,10.22-5.2,17.82,3.39,10.43,10.27,18.53,17,26.71,11.19,13.61,23.42,26.32,34.71,39.85,7.61,9.12,14.61,18.65,20.28,29.07,3.23,5.95,4.75,12.56,3.84,19.39-.79,5.95-4.82,9.72-9.84,12.4-6.07,3.24-12.72,4.72-19.41,6.14-10.54,2.23-21.29,3.83-30.92,9.19-8.73,4.85-14.03,12.02-15.64,21.99-1.93,11.96.21,23.23,5.83,33.76,5.37,10.05,12.83,18.51,21.23,26.23,5.41,4.98,10.71,10.12,15.35,15.88,7.92,9.83,8.59,20.48,3.85,31.88-3.37,8.1-8.6,14.98-14.1,21.62-9.88,11.92-20.34,23.36-29.25,36.06-5.71,8.14-10.79,16.65-13.01,26.46-1.91,8.41-.5,16.19,5.34,22.96,5.18,6,11.52,10.79,16.91,16.55,7.97,8.52,11.95,18.65,10.74,30.26-1.1,10.52-5.48,19.8-12.62,27.76-9.26,10.32-20.8,17.44-32.85,23.86-9.65,5.15-19.65,9.67-28.65,15.97-6.16,4.31-11.61,9.48-14.9,16.28-4.5,9.28-2.79,18.33,2.13,27.06,5.73,10.19,14.02,18.17,22.34,26.1,9.31,8.88,19.55,16.73,28.61,25.88,5.67,5.72,11.16,11.67,14.7,19.08,3.68,7.7,2.05,12.07-5.73,15.62-5.67,2.59-11.79,4.12-17.21,7.31-7.01,4.12-10.52,8.54-9.2,15.94.68,3.8,2.32,7.27,4.42,10.53,7.12,11.13,16.71,19.97,26.45,28.68.78.7,1.49,1.48,2.24,2.23"/>
  <path class="cls-1" d="m160.16,730.03c-4.06,5.17-7.89,10.45-10.56,16.55-3.71,8.48-3.68,17.04-1.57,25.84,1.71,7.13,5.26,13.38,8.94,19.6"/>
  <path class="cls-1" d="m611.59,271.4c-.25,3.85-2.03,7.25-3.2,10.83-2.13,6.5-2.68,12.73,2.55,18.18.21.22.23.62.33.94"/>
  <path class="cls-1" d="m119.06,228.7c-1.49,2.12-2.97,4.25-4.46,6.37"/>
  <path class="cls-1" d="m24.12,182.8c.43,1.4,2.12,1.79,2.55,3.19"/>
  <path class="cls-1" d="m98.04,588.2c-1.63,4.63-3.79,9-4.59,14-1.22,7.62-.03,14.57,3.29,21.39,3.3,6.77,8.44,12.06,13.41,17.52"/>
  <path class="cls-1" d="m77.01,511.71c-.11,1.13,1.05,2,.64,3.19"/>
  <path class="cls-1" d="m126.39,277.46c1.79.92,2.67,2.91,4.46,3.82"/>
  <path class="cls-1" d="m96.76,561.43c-1.55,2.45-4.19,3.92-5.73,6.37"/>
  <path class="cls-1" d="m155.38,373.39c-1.39.43-1.79,2.12-3.19,2.55"/>
  <path class="cls-1" d="m109.5,671.07c5.86,9.4,7.21,19.38,3.82,29.96"/>
  <path class="cls-1" d="m185.65,56.27c-13.21,8.38-27.85,13.77-42.03,20.12-12.02,5.38-24.31,10.27-35.06,18.13-1.1.8-2.13,1.69-3.19,2.54"/>
  <path class="cls-1" d="m22.85,268.86c.46,1.58-.84,2.91-.64,4.46"/>
  <path class="cls-1" d="m118.43,55.32c-2.12,1.7-4.25,3.4-6.37,5.1"/>
  <path class="cls-1" d="m130.85,575.77c-6.21,8.49-10.99,17.6-11.43,28.37-.31,7.62,2.34,14.52,6.04,21.02,2.42,4.24,5.64,7.93,8.58,11.81"/>
  <path class="cls-1" d="m611.59,369.57c-1.27,4.31-4.8,7.14-7.11,10.77-7,11.01-5.76,23.14,1.05,33.53,1.92,2.94,4.74,5.24,6.06,8.6"/>
  <path class="cls-1" d="m41.33,265.03v4.46"/>
  <path class="cls-1" d="m28.58,163.04c1.39.43,1.79,2.12,3.19,2.55"/>
  <path class="cls-1" d="m146.78,293.4c-2.12-1.49-4.25-2.97-6.37-4.46"/>
  <path class="cls-1" d="m25.4,115.87c-2.37,5.16-4.17,10.39-3.9,16.26.21,4.58,2.28,8.39,3.9,12.43"/>
  <path class="cls-1" d="m108.87,294.99c2.23.59,4.05,2.2,6.37,2.55"/>
  <path class="cls-1" d="m105.04,739.27c-4.51,5.67-8.55,11.52-10.25,18.79-1.61,6.86-.78,13.5,1.05,20.08,1.37,4.93,3.87,9.41,6.33,13.87"/>
  <path class="cls-1" d="m146.14,232.2c-2.82,3.42-5.58,6.9-7.63,10.84-3.52,6.78-2.6,13.43.59,20.08,2.96,6.16,7.46,11.18,11.9,16.17,4.33,4.87,8.97,9.51,13.94,13.78"/>
  <path class="cls-1" d="m42.6,759.67c.21,1.55-1.1,2.88-.64,4.46"/>
  <path class="cls-1" d="m108.87,653.86c1.1.6,1.95,1.45,2.55,2.55"/>
  <path class="cls-1" d="m92.3,188.54c3.79,6.96,6.34,14.19,5.11,22.31-1.03,6.8-3.54,13.09-6.73,19.11-2.25,4.26-4.77,8.42-5.97,13.09-1.67,6.48-1,12.81,2.18,18.79.85,1.59,1.7,3.19,2.55,4.78"/>
  <path class="cls-1" d="m173.54,308.06c8.71,7.11,16.45,15.2,23.88,23.6.85.97,1.5,2.11,2.24,3.17"/>
  <path class="cls-1" d="m99.95,659.6c1.1.6,1.95,1.45,2.55,2.55"/>
  <path class="cls-1" d="m90.07,267.26c1.35,2.21,3.2,4.02,4.78,6.06"/>
  <path class="cls-1" d="m34.32,253.56c.21,1.55-1.1,2.88-.64,4.46"/>
  <path class="cls-1" d="m71.27,723.98c-.6,1.1-1.45,1.95-2.55,2.55"/>
  <path class="cls-1" d="m188.83,553.46c-1.7,1.91-3.4,3.82-5.1,5.74"/>
  <path class="cls-1" d="m164.3.5c5.31,5.5,8.5,12.22,10.46,19.46,3.17,11.7-.53,21.56-8.87,29.94"/>
  <path class="cls-1" d="m87.2,6.24c1.14,3.5,3.29,6.56,4.18,10.19,1.25,5.07,2.39,10.09.94,15.31-.16.59-.02,1.27-.02,1.91"/>
  <path class="cls-1" d="m114.92,581.51c-4.54,6.91-7.87,14.23-8.64,22.62-.65,7.03,1.24,13.42,4.55,19.42,3.39,6.14,8.03,11.37,13.01,16.29.69.69,1.28,1.48,1.92,2.22"/>
  <path class="cls-1" d="m130.53,359.37c-.64,1.49-1.27,2.97-1.91,4.46"/>
  <path class="cls-1" d="m115.24,391.24c-1.1.6-1.95,1.45-2.55,2.55"/>
  <path class="cls-1" d="m148.37,472.19c3.75,6.35,7.12,12.88,8.9,20.08,3.1,12.57,2.23,24.94-2.56,36.95-2.47,6.18-5.91,11.85-9.84,17.22"/>
  <path class="cls-1" d="m80.83,83.36c-1.49.64-2.97,1.27-4.46,1.91"/>
  <path class="cls-1" d="m106.96,460.72c1.06,1.49,2.12,2.97,3.19,4.46"/>
  <path class="cls-1" d="m21.58,103.76c-1.1.6-1.95,1.45-2.55,2.55"/>
  <path class="cls-1" d="m144.55,337.06c.4,2.51,1.81,4.67,1.99,7.32.52,7.62-2.47,13.98-6.45,20.08"/>
  <path class="cls-1" d="m38.78,461.36c-.28,1.56.32,2.99.64,4.46"/>
  <path class="cls-1" d="m132.44,395.7c-4.21,4.44-7.72,9.44-10.78,14.69-5.91,10.14-8.71,21.02-6.4,32.79.87,4.45,3.04,8.43,5.07,12.43"/>
  <path class="cls-1" d="m121.93,572.59c-1.59,2.02-3.19,4.04-4.78,6.06"/>
  <path class="cls-1" d="m137.22.82c4.54,6.83,8.14,13.96,9.32,22.3,1.36,9.57-1.92,17.48-7.41,24.87"/>
  <path class="cls-1" d="m67.45,306.46c1.49.64,2.97,1.27,4.46,1.91"/>
  <path class="cls-1" d="m452.3.5c2.54,1.22,3.85,3.71,5.34,5.79,6.81,9.58,13.21,19.43,16.66,30.85,2.07,6.87,3.76,13.81,3.47,21.04-.4,9.65-3.51,18.14-10.43,25.24-5.02,5.16-10.89,9.05-16.97,12.64-4.58,2.7-8.59,6.02-12.03,9.97-4.55,5.21-4.86,11.57-3.13,17.79,2.48,8.91,7.16,16.85,12.66,24.24,11.45,15.38,24.54,29.36,37.22,43.71,9.63,10.9,18.93,22.12,25.81,35.04,2.83,5.31,4.61,11.06,3.81,17.18-.68,5.18-3.65,8.85-8.2,11.54-5.27,3.11-11.04,4.37-16.92,5.35-9.83,1.64-19.84,1.88-29.62,3.85-9.15,1.84-17.93,4.6-22.87,13.42-2.77,4.95-3.56,10.28-2.79,16.23,1.62,12.56,9.27,21.04,17.67,29.33,5.26,5.19,11.51,9.25,16.59,14.63,2.31,2.44,4.35,5.05,5.4,8.29,2.04,6.3-.05,11.99-3.26,17.16-3.75,6.04-8.61,11.21-13.9,16.03-10.39,9.46-21.05,18.67-29.69,29.9-7.02,9.12-12.52,19-14.89,30.31-2.32,11.07.91,20.74,8.17,29.35,5.16,6.11,11.57,10.95,16.67,17.12,6.38,7.71,10.75,16.08,12.14,26.17,1.75,12.67-.95,24.31-6.8,35.38-8.31,15.73-21.75,26.5-36.02,36.28-9.37,6.42-19.07,12.37-27.64,19.86-7.25,6.34-12.94,14.04-14.85,23.58-1.44,7.21-.17,14.43,2.95,21.35,4.5,9.97,11.56,17.96,18.9,25.75,8.21,8.72,17.57,16.21,26.34,24.33,6.94,6.42,13.69,13.11,17.99,21.88,3.66,7.46,2.32,11.51-5.48,14.73-5.88,2.43-12.16,3.44-18.18,5.37-3.28,1.05-6.57,2.21-9.51,3.91-5.11,2.96-6.08,9.02-2.92,15.23,2.45,4.81,5.68,9.05,9.25,13.06,6.01,6.75,13.35,12.12,19.47,18.77.24.26,1.03.03,1.56.03"/>
  <path class="cls-1" d="m77.01,12.61c-.31.98.95,1.57.64,2.55"/>
  <path class="cls-1" d="m131.81,470.28c6.71,8.16,12.49,16.72,14.75,27.39,1.89,8.91,1.39,17.53-1.06,26.15-1.88,6.61-5.12,12.61-8.59,18.49"/>
  <path class="cls-1" d="m48.66,111.73c-2.91,5.16-4.69,10.52-3.53,16.58.73,3.85,2.72,7.02,4.81,10.19"/>
  <path class="cls-1" d="m62.35,636.01c1.49,1.91,2.97,3.82,4.46,5.74"/>
  <path class="cls-1" d="m63.63,80.82c-1.51.58-2.77,1.74-4.46,1.91"/>
  <path class="cls-1" d="m78.28,470.28c.28,1.12,1.63,1.43,1.91,2.55"/>
  <path class="cls-1" d="m149.65,657.05c2.84,5.22,5.85,10.31,8.04,15.91,6.18,15.77,4.69,30.15-6.76,43.06-.05.06,0,.21,0,.31"/>
  <path class="cls-1" d="m94.21,307.1c-2.08-.13-3.65-1.78-5.73-1.91"/>
  <path class="cls-1" d="m150.92.5c5.12,7,8.98,14.68,10.08,23.28,1.05,8.29-1.23,15.99-6.57,22.62-.24.3-.72.44-.64.95"/>
  <path class="cls-1" d="m96.12,672.34c.42.85.85,1.7,1.27,2.55"/>
  <path class="cls-1" d="m148.37,307.74c8.32,5.45,15.9,11.78,22.61,19.13,5.01,5.49,8.89,11.79,11.04,18.83,2.35,7.7-.36,14.55-5.67,20.31-1.35,1.47-2.52,3.24-4.41,4.19"/>
  <path class="cls-1" d="m71.27,435.86c-.72,3.6-1.7,7.14-1.93,10.83-.36,5.62.96,10.86,3.21,15.94"/>
  <path class="cls-1" d="m27.31,221.69c-.46,1.58.84,2.91.64,4.46"/>
  <path class="cls-1" d="m41.33,766.04v5.74"/>
  <path class="cls-1" d="m77.65,38.75c-.32,1.82-1.23,3.42-1.91,5.1"/>
  <path class="cls-1" d="m112.05,467.09c.28,1.12,1.63,1.43,1.91,2.55"/>
  <path class="cls-1" d="m112.69,745.65c-4.81,7.88-6.48,16.4-5.08,25.49,1.09,7.14,3.99,13.6,7.63,19.76"/>
  <path class="cls-1" d="m70,88.46c-9.3,3.76-17.78,8.88-25.49,15.3"/>
  <path class="cls-1" d="m55.98,463.91c.07,1.73,1.58,2.84,1.91,4.46"/>
  <path class="cls-1" d="m153.15,725.57c-4.76,5.4-9.53,10.72-13.48,16.83-6.43,9.96-7.38,20.59-4.55,31.58,1.68,6.52,4.42,12.83,8.79,18.2"/>
  <path class="cls-1" d="m110.78,484.94c.28,1.12,1.63,1.43,1.91,2.55"/>
  <path class="cls-1" d="m119.7,282.24c2.2.84,3.68,2.77,5.73,3.82"/>
  <path class="cls-1" d="m98.04,342.8c.73,1.9,3,2.85,3.19,5.1"/>
  <path class="cls-1" d="m154.74,319.85c5.95,4.82,10.68,10.63,14.01,17.53,4.52,9.35,2.83,17.91-3.49,25.82-.33.41-.97.6-.96,1.27"/>
  <path class="cls-1" d="m44.51,214.67c2.08,7.99,2.05,16.08,1.27,24.22"/>
  <path class="cls-1" d="m77.65,637.29c.92,1.8,2.91,2.67,3.82,4.46"/>
  <path class="cls-1" d="m43.88,30.46v5.74"/>
  <path class="cls-1" d="m34.96,528.29v2.55"/>
  <path class="cls-1" d="m34.96,694.65v5.1"/>
  <path class="cls-1" d="m84.02,723.98c-1.79.92-2.67,2.91-4.46,3.82"/>
  <path class="cls-1" d="m23.49,465.82v2.55"/>
  <path class="cls-1" d="m601.4.82c.53.21,1.3.27,1.56.66,4.1,6.38,8.51,12.65,8.64,20.69"/>
  <path class="cls-1" d="m67.45,26v5.74"/>
  <path class="cls-1" d="m41.97,624.54c-.31.98.95,1.57.64,2.55"/>
  <path class="cls-1" d="m117.15,494.5c3.5,7.94,4.92,16.2,3.83,24.86-.85,6.8-3.01,13.16-6.38,19.12"/>
  <path class="cls-1" d="m167.17,295.31c2.05,1.09,3.05,3.38,5.1,4.46"/>
  <path class="cls-1" d="m96.12,488.13c.28,1.12,1.63,1.43,1.91,2.55"/>
  <path class="cls-1" d="m100.27,174.2c-1.93-1.46-3.56-3.31-5.73-4.46"/>
  <path class="cls-1" d="m36.55,141.05c.74,1.71,2.19,2.93,3.19,4.46"/>
  <path class="cls-1" d="m172.9,307.42c-7.43-6.16-14.87-12.32-22.3-18.49"/>
  <path class="cls-1" d="m115.88,660.87c.28,1.12,1.63,1.43,1.91,2.55"/>
  <path class="cls-1" d="m8.2,463.91v2.55"/>
  <path class="cls-1" d="m178.96.5c4.85,6.14,8.89,12.77,10.78,20.41,1.99,8.06.8,15.71-4.09,22.62"/>
  <path class="cls-1" d="m80.83,713.14c-1.27,1.7-2.55,3.4-3.82,5.1"/>
  <path class="cls-1" d="m45.15,240.17c.34,1.97-.97,3.76-.64,5.74"/>
  <path class="cls-1" d="m149.01,379.13c-1.79.92-2.67,2.91-4.46,3.82"/>
  <path class="cls-1" d="m65.54,39.38c-.32,1.82-1.23,3.42-1.91,5.1"/>
  <path class="cls-1" d="m114.6,490.04c.42.85.85,1.7,1.27,2.55"/>
  <path class="cls-1" d="m80.2,175.15c-6.61-5.01-13.6-9.45-20.71-13.7"/>
  <path class="cls-1" d="m123.52.5c2.91,5.25,5.97,10.37,7.73,16.23,2.7,8.98,2.36,17.44-2.61,25.53-.14.23-.02.63-.02.95"/>
  <path class="cls-1" d="m90.39,534.66c.31.98-.95,1.57-.64,2.55"/>
  <path class="cls-1" d="m33.04,259.93c.06,1.94-1.03,3.76-.64,5.74"/>
  <path class="cls-1" d="m55.35,442.87c-.54,3.39-1.46,6.69-1.34,10.2.11,3.26.2,6.47,1.34,9.56"/>
  <path class="cls-1" d="m437.65,792.18c-2.05.64-2.45-1.47-3.44-2.31-7.72-6.59-15.33-13.33-21.71-21.29-1.94-2.42-3.53-5.13-4.77-7.96-3.64-8.31.63-11.78,5.72-14.3,3.41-1.69,7.14-2.54,10.8-3.58,6.59-1.87,13.61-2.51,19.45-6.64,3.61-2.55,4.78-5.72,3.15-9.88-2.53-6.49-6.72-11.9-11.46-16.89-9.43-9.93-20.43-18.19-29.97-28.02-8.13-8.37-15.76-16.96-20.73-27.74-7.28-15.82-3.82-31.36,7.36-43.71,9.53-10.54,21.32-18.27,32.51-26.76,12.44-9.44,23.71-20.06,31.49-33.8,4.01-7.08,6.61-14.71,7.78-22.9,2.47-17.34-1.81-32.44-13.4-45.64-4.72-5.38-10.06-10.14-14.72-15.56-6.63-7.71-10.86-16.34-10.16-26.78.51-7.67,2.69-14.95,6.39-21.65,6.93-12.59,16.87-22.66,27.7-31.86,8.26-7.02,17.12-13.38,23.86-22.03,2.8-3.59,5.14-7.45,5.75-12.1.8-6.09-2.18-10.46-6.36-14.35-4.87-4.53-10.4-8.24-15.33-12.7-6.32-5.72-11.47-12.05-14.05-20.41-3.72-12.06,1.31-23.12,12.79-27.48,9.07-3.44,18.58-4.39,28.05-5.71,8.85-1.23,17.81-1.94,26.14-5.69,5.65-2.55,10.02-6.48,11.3-12.49,1.16-5.42.32-11.02-2.07-16.23-4.59-10.02-11.18-18.69-18.18-27.08-13.69-16.42-29.16-31.29-42.35-48.15-6.62-8.45-11.97-17.55-15.08-28.01-3.27-11-.49-19.85,7.72-27.46,4.21-3.9,8.78-7.35,13.08-11.13,9.47-8.31,15.44-18.34,16.3-31.23.87-13.11-2.69-25.04-8.27-36.69-4.14-8.64-9.21-16.57-15.32-23.9-.58-.69-.93-1.39-1.95-1.25"/>
  <path class="cls-1" d="m108.87,547.41c-1.06,1.49-2.12,2.97-3.19,4.46"/>
  <path class="cls-1" d="m73.82,329.41c-.98.31-1.57-.95-2.55-.64"/>
  <path class="cls-1" d="m41.33,444.15c.31.98-.95,1.57-.64,2.55"/>
  <path class="cls-1" d="m163.35,549c-1.49,1.91-2.97,3.82-4.46,5.74"/>
  <path class="cls-1" d="m.55,154.76c.4,1.93,2.16,3.17,2.55,5.1"/>
  <path class="cls-1" d="m34.96,537.85v2.55"/>
  <path class="cls-1" d="m157.61,556.01c-.92,1.8-2.91,2.67-3.82,4.46"/>
  <path class="cls-1" d="m60.44,589.48c-3.63,5.9-6.84,11.95-7.01,19.12"/>
  <path class="cls-1" d="m93.58,71.89c-6.12,2.38-11.82,5.69-17.85,8.28-8.48,3.64-16.76,7.69-24.84,12.12"/>
  <path class="cls-1" d="m64.9,15.16c-.31.98.95,1.57.64,2.55"/>
  <path class="cls-1" d="m.55,624.54c-.31.98.95,1.57.64,2.55"/>
  <path class="cls-1" d="m124.8,391.88c-1.36,2.22-3.74,3.52-5.1,5.74"/>
  <path class="cls-1" d="m134.35,721.43c-1.16,1.82-2.91,3.04-4.46,4.46"/>
  <path class="cls-1" d="m73.82,429.49c.31.98-.95,1.57-.64,2.55"/>
  <path class="cls-1" d="m87.2,323.67c-.98.31-1.57-.95-2.55-.64"/>
  <path class="cls-1" d="m96.12,641.11c1.44,1.96,3.14,3.66,5.1,5.1"/>
  <path class="cls-1" d="m117.15,714.41c-5.4,6.07-11.2,11.74-17.2,17.21"/>
  <path class="cls-1" d="m12.97,113.64c-.74,1.38-1.49,2.76-2.23,4.14"/>
  <path class="cls-1" d="m119.06,316.66c-1.68-.69-3.28-1.6-5.1-1.91"/>
  <path class="cls-1" d="m87.84,409.09c-.28,1.12-1.63,1.43-1.91,2.55"/>
  <path class="cls-1" d="m86.57,586.93c-3.1,5.4-5.78,10.97-6.67,17.21-1.08,7.57.27,14.71,4.13,21.35.74,1.28,1.49,2.55,2.23,3.82"/>
  <path class="cls-1" d="m55.35,323.67c-.98.31-1.57-.95-2.55-.64"/>
  <path class="cls-1" d="m125.12,462.31c1.38,1.81,2.76,3.61,4.14,5.42"/>
  <path class="cls-1" d="m117.79,377.85c-.6,1.66-2.49,2.25-3.19,3.82"/>
  <path class="cls-1" d="m121.61,300.73c1.83.3,3.12,2.02,5.1,1.91"/>
  <path class="cls-1" d="m21.58,275.23c-.54,5.95-1.14,11.9,0,17.85"/>
  <path class="cls-1" d="m145.19,321.76c1.11.28,1.43,1.63,2.55,1.91"/>
  <path class="cls-1" d="m99.31,408.45c-.28,1.12-1.63,1.43-1.91,2.55"/>
  <path class="cls-1" d="m72.55,589.48c-2.55,5.19-4.98,10.31-5.87,16.23-1.25,8.28.95,15.56,4.67,22.62.63,1.19,1.24,2.49,2.16,3.54"/>
  <path class="cls-1" d="m29.86,96.75c-1.7,1.27-3.4,2.55-5.1,3.82"/>
  <path class="cls-1" d="m121.61,317.94c1.7.85,3.4,1.7,5.1,2.55"/>
  <path class="cls-1" d="m92.3,511.08c1.06,5.95.77,11.9,0,17.85"/>
  <path class="cls-1" d="m106.32,400.16c-.28,1.12-1.63,1.43-1.91,2.55"/>
  <path class="cls-1" d="m28.58,149.02c1.06,1.27,2.12,2.55,3.19,3.82"/>
  <path class="cls-1" d="m132.44,351.72c.46,1.78-.71,3.36-.64,5.1"/>
  <path class="cls-1" d="m138.81,388.69c-1.09,2.05-3.37,3.05-4.46,5.1"/>
  <path class="cls-1" d="m83.38,322.4c-.98.31-1.57-.95-2.55-.64"/>
  <path class="cls-1" d="m193.29.82c5.51,6.84,10.16,14.01,11.9,22.93,1.17,6.04-.22,11.34-2.73,16.56-.41.85-1.02,1.72-1.52,2.58"/>
  <path class="cls-1" d="m118.43,474.11c.7,1.58,2.59,2.16,3.19,3.82"/>
  <path class="cls-1" d="m54.71,80.82c-.85.42-1.7.85-2.55,1.27"/>
  <path class="cls-1" d="m106.96,321.12c-.98.31-1.57-.95-2.55-.64"/>
  <path class="cls-1" d="m152.19,303.91c5.65,4.08,11.24,8.25,16.57,12.75"/>
  <path class="cls-1" d="m71.91,280.97c2.58,3.19,5.46,6.05,8.92,8.29"/>
  <path class="cls-1" d="m79.56,21.53c.62,4.04.33,8.07,0,12.11"/>
  <path class="cls-1" d="m91.66,419.29c-2.13,4.59-4.45,9.1-5.73,14.03-2.47,9.54-1.76,18.72,3.18,27.41"/>
  <path class="cls-1" d="m134.99,370.84c-.67,1.6-2.51,2.23-3.19,3.82"/>
  <path class="cls-1" d="m4.37,119.06c-1.27,2.97-2.55,5.95-3.82,8.92"/>
  <path class="cls-1" d="m106,269.81c3.32,4.19,7.51,7.4,11.79,10.52"/>
  <path class="cls-1" d="m126.07,656.41c.28,1.12,1.63,1.43,1.91,2.55"/>
  <path class="cls-1" d="m84.02,49.58c-.28,1.12-1.63,1.43-1.91,2.55"/>
  <path class="cls-1" d="m89.12,718.24c-.67,1.6-2.51,2.23-3.19,3.82"/>
  <path class="cls-1" d="m479.06.5c3.43,2.22,5.4,5.68,7.65,8.92,6.9,9.91,12.49,20.47,15.59,32.2,5.29,20.04,2.62,38.32-11.72,54.22-5.24,5.81-11.06,11.13-15.38,17.78-3.11,4.8-5.12,10-4.95,15.63.17,5.61,1.86,11.05,4.04,16.25,5.89,14.02,15.51,25.43,25.44,36.69,12.24,13.88,25.82,26.53,37.29,41.1,5.22,6.62,8.99,14.06,10.8,22.31,2.11,9.6-2.27,18.41-11.1,23.26-5.88,3.22-12.33,4.51-18.8,5.71-9.46,1.76-19.09,2.67-28.35,5.45-6.34,1.9-12.53,4.22-16.21,10.21-4.04,6.58-4.01,13.43-.69,20.38,3.95,8.27,10.83,13.75,17.86,19.12,3.72,2.84,7.6,5.43,10.56,9.2,3.19,4.06,3.53,8.18,1.56,12.79-2.72,6.36-7.34,11.15-12.43,15.63-10.26,9.02-22.12,16.1-31.55,26.12-6.75,7.17-12.82,14.8-16.26,24.21-5.43,14.89-3.63,28.65,6.39,41.11,3.59,4.46,7.43,8.7,11.47,12.74,6.33,6.32,11.51,13.48,14.88,21.72,3.75,9.15,4.7,18.81,3.58,28.65-2.22,19.62-12.19,35.21-25.49,49.08-9.58,9.99-20.96,17.9-31.2,27.11-7.5,6.75-14.73,13.72-19.51,22.9-6.93,13.3-5.81,26.39.76,39.19,6.71,13.06,16.97,23.36,27.68,33.14,6.77,6.19,14.13,11.75,20.33,18.55,4.46,4.88,8.43,10.14,10.54,16.55,1.23,3.75.43,6.3-2.53,8.94-3.48,3.11-7.87,4.17-12.14,5.35-5.19,1.43-10.46,2.56-15.61,4.16-2.12.66-4.11,1.63-6.01,2.64-4.39,2.35-5.76,7.71-3.54,12.68,3.16,7.05,8.29,12.52,14,17.54,4.41,3.87,8.77,7.8,13.02,11.83.71.67,1.29.46,1.96.59"/>
  <path class="cls-1" d="m52.16,266.31c.13,6.05,2.8,11.2,5.73,16.26.05.08,0,.21,0,.32"/>
  <path class="cls-1" d="m147.1,391.88c-3.11,3.72-6.62,7.13-8.92,11.47"/>
  <path class="cls-1" d="m142.64,549.32c-.28,1.12-1.63,1.43-1.91,2.55"/>
  <path class="cls-1" d="m134.35,667.24c3.86,6.37,6.02,13.38,6.24,20.72.16,5.51-1.3,10.97-4.01,15.93-.82,1.5-1.69,2.98-2.54,4.46"/>
  <path class="cls-1" d="m133.08,347.9v2.55"/>
  <path class="cls-1" d="m99.31,570.99c-.67,1.6-2.51,2.23-3.19,3.82"/>
  <path class="cls-1" d="m31.77,266.94c-.18,5.52-.63,11.05,0,16.57"/>
  <path class="cls-1" d="m42.6,253.56c.18,3-1.03,5.91-.64,8.92"/>
  <path class="cls-1" d="m119.06,549.96c-.28,1.12-1.63,1.43-1.91,2.55"/>
  <path class="cls-1" d="m23.49,457.53v3.82"/>
  <path class="cls-1" d="m41.97,271.4c-.21,5.98,2.22,11.25,4.46,16.57"/>
  <path class="cls-1" d="m112.69,3.69c2.79,5.16,5.47,10.25,6.49,16.23,1.34,7.88.04,15.09-3.67,21.98-.34.64-.62,1.28-.91,1.94"/>
  <path class="cls-1" d="m115.24,341.52c.42.85.85,1.7,1.27,2.55"/>
  <path class="cls-1" d="m100.58,318.57c-.98.31-1.57-.95-2.55-.64"/>
  <path class="cls-1" d="m157.93,542.31c-2.38,4.29-5.59,7.97-8.6,11.79"/>
  <path class="cls-1" d="m138.81,308.38c-3.22-.71-5.64-3.27-8.92-3.82"/>
  <path class="cls-1" d="m50.25,87.83c-1.47.24-2.17,2.03-3.82,1.91"/>
  <path class="cls-1" d="m52.8,610.51v2.55"/>
  <path class="cls-1" d="m125.43,47.67c-.28,1.12-1.63,1.43-1.91,2.55"/>
  <path class="cls-1" d="m28.58,228.7v16.57"/>
  <path class="cls-1" d="m40.69,619.44c-.31,1.36.46,2.54.64,3.82"/>
  <path class="cls-1" d="m81.15,274.27c3.29,3.96,6.99,7.48,11.15,10.52"/>
  <path class="cls-1" d="m115.24,554.42c-.67,1.6-2.51,2.23-3.19,3.82"/>
  <path class="cls-1" d="m173.54,301.04c4.91,3.99,9.33,8.52,14.02,12.75"/>
  <path class="cls-1" d="m134.67,637.6c2.34,2.97,4.67,5.95,7.01,8.92"/>
  <path class="cls-1" d="m79.56,72.53c-.85.42-1.7.85-2.55,1.27"/>
  <path class="cls-1" d="m94.85,316.66c-.98.31-1.57-.95-2.55-.64"/>
  <path class="cls-1" d="m27.95,604.78c-.18,1.28-.95,2.46-.64,3.82"/>
  <path class="cls-1" d="m191.38,317.62c1.17.95,2.43,1.82,3.19,3.19"/>
  <path class="cls-1" d="m170.99,717.28c-2.67,4.26-6.68,7.39-9.56,11.47"/>
  <path class="cls-1" d="m10.74,168.78c.28,1.12,1.63,1.43,1.91,2.55"/>
  <path class="cls-1" d="m91.03,315.39c-.98.31-1.57-.95-2.55-.64"/>
  <path class="cls-1" d="m53.43,614.98c-.42,3.2,1.14,5.98,1.91,8.92"/>
  <path class="cls-1" d="m71.27,93.56c-5.7,2.77-10.88,6.31-15.61,10.52"/>
  <path class="cls-1" d="m26.67,253.56c.33,1.37-.97,2.46-.64,3.82"/>
  <path class="cls-1" d="m90.39,38.75c-.61,2.88-2.68,5.03-3.82,7.65"/>
  <path class="cls-1" d="m88.48,500.88c.83,3.06,3.02,5.63,3.19,8.92"/>
  <path class="cls-1" d="m40.69,205.11c1.13,2.74,2.44,5.4,3.19,8.29"/>
  <path class="cls-1" d="m152.51,561.75c-2.93,3.86-6.32,7.36-8.92,11.47"/>
  <path class="cls-1" d="m110.14,49.58c-.28,1.12-1.63,1.43-1.91,2.55"/>
  <path class="cls-1" d="m25.4,258.66c.33,1.37-.97,2.46-.64,3.82"/>
  <path class="cls-1" d="m127.35,728.44c-4.33,4.82-9.18,9.18-12.74,14.66"/>
  <path class="cls-1" d="m141.36,310.29c.85.42,1.7.85,2.55,1.27"/>
  <path class="cls-1" d="m103.77,534.02c-.57,3.09-2.61,5.5-3.82,8.29"/>
  <path class="cls-1" d="m75.1,688.92v8.92"/>
  <path class="cls-1" d="m34.96,97.39c-2.8,1.83-5.05,4.3-7.65,6.37"/>
  <path class="cls-1" d="m55.35,26.63c-.03,3.83.2,7.68-.64,11.47"/>
  <path class="cls-1" d="m398.78.82c4.67,3.48,7.67,8.39,10.76,13.11,4.82,7.36,8.26,15.48,9.54,24.19,1.7,11.6-.85,21.81-14.52,28.75-6.53,3.31-13.48,4.86-20.43,6.62-4.66,1.18-9.3,2.36-13.72,4.41-10.8,5.02-11,11.65-7.87,20.09,2.93,7.89,8.26,14.39,13.65,20.73,14.74,17.32,30.85,33.47,44.52,51.69,5.64,7.52,10.85,15.49,13.63,24.54,1.93,6.28,2.63,12.9-1.13,19.1-2.95,4.86-7.57,7.74-12.49,9.75-7.48,3.07-15.44,4.85-23.18,7.23-9.89,3.05-19.64,6.73-26.79,14.87-3.72,4.24-6.18,9.1-7.35,14.66-3.94,18.73,1.48,35.21,12.16,50.33,6.49,9.2,14.59,17.01,22.58,24.89,4.32,4.26,8.26,8.84,11.48,14.01,7.07,11.36,5.95,22.91.59,34.41-5.48,11.77-13.88,21.55-21.91,31.6-8.33,10.42-17.39,20.29-24.28,31.83-3.6,6.04-6.83,12.23-8.2,19.15-1.68,8.5.57,15.94,6.6,22.33,4.41,4.67,9.55,8.5,14.04,13.05,8.95,9.06,12.67,19.85,10.19,32.49-2.14,10.88-8.18,19.53-16.27,26.73-9.55,8.5-20.66,14.66-32.15,20.11-10.6,5.03-21.32,9.83-30.57,17.24-6.61,5.3-11.55,11.83-12.66,20.4-.86,6.61,1.27,12.74,4.66,18.49,6.04,10.26,14.67,18.19,23.31,26.09,8.16,7.46,16.76,14.46,24.76,22.09,6.34,6.05,12.08,12.64,16.8,20.22,4.29,6.89,4.61,13.59-4.89,18.37-4.79,2.41-9.85,4.27-14.43,7.16-3.37,2.13-6.42,4.53-8.18,8.06-2.03,4.08-1.83,8.42-.38,12.72,3.12,9.26,9.51,16.31,15.98,23.22,5.18,5.53,10.79,10.66,16.19,15.99.39.39.73.67,1.29.47"/>
  <path class="cls-1" d="m149.01,718.24c-4.52,5.45-10.13,9.85-14.65,15.3"/>
  <path class="cls-1" d="m115.88,306.46c-.98.31-1.57-.95-2.55-.64"/>
  <path class="cls-1" d="m26.67,610.51v7.65"/>
  <path class="cls-1" d="m36.87,237.62c.41,2.81-.83,5.49-.64,8.29"/>
  <path class="cls-1" d="m85.29,163.68c2.87,1.81,5.73,3.61,8.6,5.42"/>
  <path class="cls-1" d="m72.55,363.83v7.65"/>
  <path class="cls-1" d="m167.17,385.18c-3.95,3.04-7.7,6.29-10.83,10.2"/>
  <path class="cls-1" d="m138.5,48.63c-4.2,5.26-9.47,9.3-14.97,13.07"/>
  <path class="cls-1" d="m111.42,304.55c-.98.31-1.57-.95-2.55-.64"/>
  <path class="cls-1" d="m60.44,702.94c.31.98-.95,1.57-.64,2.55"/>
  <path class="cls-1" d="m135.95,557.29c-2.09,2.98-5.21,5.01-7.33,7.97"/>
  <path class="cls-1" d="m69.36,154.12c-3.22-1.25-5.71-3.65-8.6-5.42"/>
  <path class="cls-1" d="m40.05,447.97c-.09,2.6-1.88,4.93-1.27,7.65"/>
  <path class="cls-1" d="m103.13,352.36c1.39,3.61.15,7.22,0,10.84"/>
  <path class="cls-1" d="m170.04,372.12c-5.1,4.04-10.19,8.07-15.29,12.11"/>
  <path class="cls-1" d="m21.58,694.02v2.55"/>
  <path class="cls-1" d="m64.9,291.16c1.11.28,1.43,1.63,2.55,1.91"/>
  <path class="cls-1" d="m33.04,105.67c-1.93,2.54-4.46,4.62-5.73,7.65"/>
  <path class="cls-1" d="m129.89,338.33c1.2,2.65,2.87,5.16,2.55,8.29"/>
  <path class="cls-1" d="m139.77,288.3c-2.76-2.12-5.52-4.25-8.28-6.37"/>
  <path class="cls-1" d="m60.44,430.76c-1.35,3.67-3.62,6.96-4.46,10.84"/>
  <path class="cls-1" d="m15.2,766.68v7.65"/>
  <path class="cls-1" d="m36.23,221.05c.1,2.77.99,5.48.64,8.29"/>
  <path class="cls-1" d="m178.96,50.86c-2.52,2.19-5.05,4.38-7.96,6.06"/>
  <path class="cls-1" d="m22.21,294.99c-.31.98.95,1.57.64,2.55"/>
  <path class="cls-1" d="m99.95,493.23c3.22,4.41,5.45,9.25,6.37,14.66"/>
  <path class="cls-1" d="m98.67,289.25c.85.42,1.7.85,2.55,1.27"/>
  <path class="cls-1" d="m88.48,688.28v7.65"/>
  <path class="cls-1" d="m89.12,556.97c-.28,1.12-1.63,1.43-1.91,2.55"/>
  <path class="cls-1" d="m31.13,207.03c.84,2.85,2.63,5.33,3.19,8.29"/>
  <path class="cls-1" d="m11.38,282.24v2.55"/>
  <path class="cls-1" d="m26.04,217.86c-.31.98.95,1.57.64,2.55"/>
  <path class="cls-1" d="m13.93,160.49c3.12,3.68,6.56,7.04,10.19,10.2"/>
  <path class="cls-1" d="m106.96,509.16c.43,4.89.43,9.77,0,14.66"/>
  <path class="cls-1" d="m68.09,579.28c-.28,1.12-1.63,1.43-1.91,2.55"/>
  <path class="cls-1" d="m33.68,167.5c3.61,2.97,7.22,5.95,10.83,8.92"/>
  <path class="cls-1" d="m25.4,94.84c-1.11.28-1.43,1.63-2.55,1.91"/>
  <path class="cls-1" d="m64.27,743.74c-.28,1.12-1.63,1.43-1.91,2.55"/>
  <path class="cls-1" d="m221.96.82c4.91,5.13,8.88,10.78,11.56,17.49,4,10.02,1.94,18.56-5.2,26.15-6.11,6.49-13.71,10.95-21.68,14.61-14.86,6.83-30,13.05-44.85,19.9-8.86,4.09-17.51,8.75-23.92,16.5-8.39,10.14-6.51,18.97,3.19,25.8,6.47,4.56,13.75,7.53,21.01,10.55,11.03,4.59,22.37,8.64,31.23,17.19,6.54,6.3,10.12,13.94,11.55,22.94,1.91,12.07-1.42,22.8-7.08,33.17-5.15,9.43-12.11,17.46-19.1,25.51-4.54,5.23-9.06,10.53-11.49,17.19-2.22,6.08-1.88,12.19.34,18.15,4.16,11.19,11.5,20.36,19.1,29.32,7.44,8.78,15.5,17.01,23.27,25.48,10.8,11.77,20.82,24.14,28.22,38.32,4.38,8.4,7.52,17.31,8.22,27.03.3,4.18.51,8.2-.84,12.1-1.95,5.63-6.6,8.04-12.06,9.26-6.63,1.48-13.35,2.67-19.12,6.68-7.06,4.9-10.43,11.81-12.2,20.07-1.99,9.3-1.06,18.35.77,27.43,2.46,12.19,6.78,23.93,9.33,36.06,1.62,7.73,2.39,15.69,1.69,23.88-1.18,13.6-7.55,24.16-16.44,33.78-5.92,6.4-12.76,11.89-18.19,18.77-5.73,7.27-9.54,15.52-10.63,24.58-.79,6.6-.39,13.32.9,20.09,2.45,12.88,8.43,24.12,14.61,35.3,5.87,10.61,12.12,21.06,16.69,32.28,5.25,12.87,4.69,25.43-4.29,36.97-4.28,5.49-8.32,11.27-10.83,17.83-2.86,7.48-4.06,15.17-2.35,23.26,2.17,10.3,6.95,19.23,13.13,27.55"/>
  <path class="cls-1" d="m102.5,66.79c-.85.42-1.7.85-2.55,1.27"/>
  <path class="cls-1" d="m17.75,107.59c-.28,1.12-1.63,1.43-1.91,2.55"/>
  <path class="cls-1" d="m45.79,177.7c4.77,4.38,9.69,8.62,13.38,14.02"/>
  <path class="cls-1" d="m3.74,172.6c.28,1.12,1.63,1.43,1.91,2.55"/>
  <path class="cls-1" d="m117.15,289.89c3.75,1.65,6.94,4.35,10.83,5.74"/>
  <path class="cls-1" d="m102.5,716.96c-4.41,4.94-9.08,9.61-14.02,14.02"/>
  <path class="cls-1" d="m169.08,396.02c-4.41,5.25-8.09,10.81-10.31,17.49-3.26,9.84-3.19,19.53-.52,29.36,2.73,10.01,7.82,19.02,12.1,28.36,5.67,12.35,9.3,25.12,8.61,38.89-.65,13.02-5.51,24.46-12.76,35.06-.73,1.07-1.49,2.13-2.23,3.19"/>
  <path class="cls-1" d="m20.3,247.82v2.55"/>
  <path class="cls-1" d="m134.99,544.86c-2.33,3.75-5.4,6.9-8.28,10.2"/>
  <path class="cls-1" d="m12.66,251.01v2.55"/>
  <path class="cls-1" d="m94.21,576.73c-.28,1.12-1.63,1.43-1.91,2.55"/>
  <path class="cls-1" d="m13.29,244.63v2.55"/>
  <path class="cls-1" d="m57.89,577.37c-.28,1.12-1.63,1.43-1.91,2.55"/>
  <path class="cls-1" d="m127.98,715.69c-4.19,4.73-8.61,9.24-13.38,13.39"/>
  <path class="cls-1" d="m36.23,198.1c.84.36.83,1.29,1.27,1.91"/>
  <path class="cls-1" d="m87.84,697.2c-.03,3.72-1.92,6.86-3.19,10.2"/>
  <path class="cls-1" d="m78.28,516.18c.98,4.67.74,9.35,0,14.02"/>
  <path class="cls-1" d="m42.6,599.04c.31.98-.95,1.57-.64,2.55"/>
  <path class="cls-1" d="m40.05,607.96v10.2"/>
  <path class="cls-1" d="m199.66,44.16c-3.72,4.69-8.26,8.42-13.38,11.47"/>
  <path class="cls-1" d="m13.29,235.71v2.55"/>
  <path class="cls-1" d="m89.12,569.72c-.92.36-1.55,1-1.91,1.91"/>
  <path class="cls-1" d="m156.97,568.13c-6.12,8.06-11.08,16.77-12.97,26.79-1.43,7.56-.87,15.12,1.42,22.64,3.81,12.49,10.54,23.41,17.23,34.43,6.23,10.27,12.24,20.71,15.33,32.48,2.59,9.85,1.93,19.3-3.8,28.05-.73,1.11-1.29,2.33-1.92,3.5"/>
  <path class="cls-1" d="m20.94,233.8v10.2"/>
  <path class="cls-1" d="m142.32,561.75c-3.62,4.45-7.56,8.65-10.83,13.39"/>
  <path class="cls-1" d="m81.47,738c-.28,1.12-1.63,1.43-1.91,2.55"/>
  <path class="cls-1" d="m140.09,377.22c-3.75,2.82-6.45,6.75-10.19,9.56"/>
  <path class="cls-1" d="m611.59,47.67c.17,5.78-2.19,10.86-4.48,15.93-4.96,10.93-10.63,21.49-14.1,33.13-7.18,24.06-2.73,45.39,13.47,64.42,1.47,1.72,2.82,3.53,4.47,5.09"/>
  <path class="cls-1" d="m94.21,52.77c-.36.92-1,1.55-1.91,1.91"/>
  <path class="cls-1" d="m13.93,609.24c-.86,4.46-.86,8.92,0,13.39"/>
  <path class="cls-1" d="m11.38,108.86c-.28,1.12-1.63,1.43-1.91,2.55"/>
  <path class="cls-1" d="m71.91,660.87c.92.36,1.55,1,1.91,1.91"/>
  <path class="cls-1" d="m301.29,792.02c-.21.05-.54.22-.62.14-8.18-8.04-16.64-15.88-22.58-25.83-3.85-6.45-7.25-13.11-7.44-21-.23-9.27,4.24-16.41,9.61-23.27,2.98-3.81,6.18-7.42,8.05-12.07,2.54-6.34,1.45-11.99-1.97-17.57-6.96-11.36-16.76-19.92-27.06-28.08-7.86-6.23-16.39-11.66-23.3-19.07-4.35-4.67-7.94-9.86-9.81-15.96-2.57-8.4-1.48-16.49,2.79-24.21,6.33-11.42,16.56-18.52,27.44-24.81,9.96-5.76,20.59-10.31,30.23-16.63,8.31-5.44,15.9-11.72,20.02-21.05,3.35-7.58,2.65-14.89-2.06-22.03-3.05-4.63-7.34-8.01-10.68-12.31-6.01-7.73-8.83-15.97-7.03-25.88,1.66-9.11,6.76-15.82,13.13-21.99,7.19-6.97,15.42-12.76,22.33-20.05,7.68-8.1,14.02-17.23,17.35-27.79,5.48-17.34,4.01-34.17-5.83-50.03-5.88-9.49-13.08-17.87-20.12-26.43-7.14-8.68-13.25-18-17.96-28.3-4.53-9.92-7.33-20.18-8.52-30.96-.95-8.6-.28-17.13,1.67-25.48,3.6-15.48,10.84-29.23,20.98-41.43,5.98-7.2,12.31-14.11,17.81-21.7,3.14-4.34,5.88-8.93,7.65-14.02,2.48-7.1,2.71-14.42,1.21-21.66-2.68-12.91-9.53-23.56-18.35-33.22-6.91-7.56-14.72-14-22.62-20.41-4.36-3.54-8.66-7.17-11.64-12.29-4.36-7.48-2.11-12.32,1.74-16.93,4.32-5.15,10.26-8.1,16.23-10.83,8.97-4.1,18.57-6.54,27.69-10.27,5.62-2.3,10.7-5.46,14.03-10.81,3.56-5.72,3.15-11.82,1.22-17.83-2.32-7.21-6.95-13.09-11.72-18.83-.39-.47-.85-.25-1.28-.31"/>
  <path class="cls-1" d="m64.27,521.91c-.03,4.26.2,8.53-.64,12.75"/>
  <path class="cls-1" d="m73.19,156.67c3.4,1.91,6.8,3.82,10.19,5.74"/>
  <path class="cls-1" d="m20.3,228.06v2.55"/>
  <path class="cls-1" d="m137.22,294.03c4.25,2.76,8.5,5.52,12.74,8.29"/>
  <path class="cls-1" d="m493.08.82c3.43,2.03,5.14,5.57,7.27,8.65,7.85,11.33,13.69,23.7,16.2,37.27,2.98,16.08.42,31.44-8.2,45.55-4.02,6.57-9.1,12.41-13.34,18.83-4.7,7.13-8.22,14.8-7.59,23.56.55,7.66,3.03,14.89,6.63,21.67,5.64,10.64,13.03,20.02,20.95,29.06,7.94,9.06,16.61,17.39,24.84,26.14,6.6,7.02,13.19,14.1,17.62,22.87,4.51,8.94,6.6,17.95,1.85,27.42-3.5,6.99-9.71,10.89-16.54,14.04-9.02,4.17-18.87,5.22-28.35,7.65-5.95,1.53-11.89,3.04-17.22,6.34-6.32,3.91-9.78,9.37-9.18,16.91.45,5.62,3.39,10.12,7.29,14.02,4.73,4.74,10.19,8.55,15.6,12.45,1.71,1.23,3.24,2.68,4.48,4.44,3.46,4.9,3.6,7.84-.4,14.63-4.26,7.21-10.8,12.41-17.49,17.2-11.39,8.15-23.02,15.97-32.13,26.83-6.31,7.52-10.43,15.91-11.89,25.8-1.97,13.41,3.2,24.16,11.24,34.12,5.59,6.92,12.17,13,17.22,20.39,8.98,13.13,12.52,27.43,10.6,43.36-2.08,17.26-9.79,31.7-20.47,44.94-8.75,10.83-19.34,19.75-29.59,29.05-8.46,7.68-16.43,15.94-22.02,26.08-7.93,14.4-7.53,28.87-.03,43.34,6.04,11.65,14.63,21.18,24.2,29.98,8.46,7.78,17.69,14.77,24.87,23.88,2.38,3.02,4.44,6.2,5.77,9.87,2.25,6.23.76,10.09-5.11,13.43-5.88,3.34-12.47,4.45-18.82,6.32-3.59,1.06-7.19,2.16-10.48,3.9-6.23,3.31-7.32,9.01-3.58,15.27,3.24,5.42,7.72,9.67,12.17,13.98,4.32,4.18,9.35,7.6,13.4,12.1.24.26,1.02.03,1.55.03"/>
  <path class="cls-1" d="m151.88,401.12c-3.92,6.22-6.86,12.78-8.34,20.07-2.25,11.1.74,21.13,5.46,30.93,3.74,7.77,8.57,14.92,12.52,22.58,4.63,8.98,7.31,18.38,7.87,28.41.74,13.22-2.84,25.35-9.54,36.65"/>
  <path class="cls-1" d="m147.42,294.03c7.16,5.35,14.56,10.4,21.34,16.26,12.27,10.62,24.18,21.59,31.19,36.66,2.57,5.52,4.87,11.18,4.52,17.51-.3,5.38-3.07,9.05-7.3,12.17-5.76,4.23-12.58,6.64-18.27,11.01-2.1,1.61-4.14,3.34-6.31,4.87"/>
  <path class="cls-1" d="m125.43,556.33c-3.66,4.61-8.45,8.14-12.11,12.75"/>
  <path class="cls-1" d="m97.4,1.77c.84.36.83,1.29,1.27,1.91"/>
  <path class="cls-1" d="m94.85,654.5c.92.36,1.55,1,1.91,1.91"/>
  <path class="cls-1" d="m144.55,467.09c.09,1.06,1.51,1.17,1.59,2.23"/>
  <path class="cls-1" d="m611.59,352.36c-.52,2.13-2.19,3.21-3.79,4.5-8.42,6.84-17.39,13.03-24.92,20.96-4.31,4.54-7.7,9.8-9.01,15.69-1.63,7.31-.48,14.8,3.02,21.61,4.14,8.08,9.77,14.92,16.77,20.83,4.88,4.11,9.91,8.09,14.42,12.65,1.47,1.49,2.94,2.99,3.5,5.1"/>
  <path class="cls-1" d="m84.66,676.81c1.27,3.34,3.16,6.48,3.19,10.2"/>
  <path class="cls-1" d="m611.59,522.55c-.58,3.88-3.83,5.94-6.11,8.55-10.71,12.27-21.03,24.85-29.15,38.99-4.4,7.66-7.89,16.05-8.8,24.83-.84,8.14-1.89,16.67,3.53,24.25,4.16,5.81,9.92,8.94,16.34,11.04,6.7,2.2,13.56,3.95,20.38,5.74,1.17.31,1.9,1.44,3.17,1.33"/>
  <path class="cls-1" d="m95.49,307.74c3.26.85,6.2,2.64,9.56,3.19"/>
  <path class="cls-1" d="m611.59,695.93c-.41,1.57-1.49,2.65-2.52,3.85-6.3,7.3-13.86,13.34-20.4,20.39-5.08,5.47-9.97,11.02-13.48,17.79-5.96,11.44-3.62,19.4,3.01,28.36,7.09,9.59,16.57,16.98,24.76,25.56.63.66,1.09,0,1.62.14"/>
  <path class="cls-1" d="m235.66.5c7.05,6.11,12.25,13.6,14.17,22.66,1.58,7.45-.65,14.39-6.18,20.07-4.42,4.53-9.57,8.08-15.04,11.06-10.95,5.98-22.7,10.24-34.08,15.31-10.27,4.57-20.65,8.87-29.92,15.36"/>
  <path class="cls-1" d="m206.99.5c7.53,7.41,12.84,16.07,13.6,26.78.42,5.9-1.73,11.29-5.61,15.95-5.89,7.07-13.43,11.99-21.4,16.17-11.75,6.16-24.18,10.91-36.31,16.27-10.15,4.48-20.25,9.01-29.6,15.03"/>
  <path class="cls-1" d="m110.14,572.27c-2.6,3.15-5.39,6.14-7.65,9.56"/>
  <path class="cls-1" d="m51.2,139.78c2.47,3.31,5.64,5.85,8.92,8.29"/>
  <path class="cls-1" d="m610.95,535.3c-2.66,4.65-6.43,8.45-9.61,12.71-5.93,7.93-10.97,16.36-14.52,25.57-2.1,5.47-3.07,11.25-3.78,17.16-.66,5.58.36,10.67,2.21,15.6,1.93,5.15,6.27,8.34,11.04,10.88,4.65,2.47,9.76,3.64,14.66,5.41"/>
  <path class="cls-1" d="m126.39,642.7c2.76,2.97,5.52,5.95,8.28,8.92"/>
  <path class="cls-1" d="m611.59,679.99c-.08,6.15-3.98,10.54-7.4,14.92-8.62,11.06-19.19,20.3-28.88,30.37-5.34,5.55-10.81,11.06-14.67,17.82-5.38,9.4-3.1,17.02,2.87,24.51,7.26,9.1,16.42,16.3,24.8,24.27.65.62,1.1,0,1.62.13"/>
  <path class="cls-1" d="m41.97,773.69c-.15,3.34,1.23,6.38,1.91,9.56"/>
  <path class="cls-1" d="m103.77,267.58c-3.25-4.52-6.57-8.88-7.78-14.63-1.02-4.83.03-9.07,2.13-13.05,2.62-4.97,6.03-9.51,8.8-14.41,4.95-8.77,8.48-17.98,6.7-28.34-1.36-7.95-4.97-14.79-10.81-20.4"/>
  <path class="cls-1" d="m69.04,183.12c8.39,8.24,13.55,17.96,13.69,29.96.08,7.15-2.82,13.52-5.81,19.72-3.35,6.94-4.97,14.11-4.31,21.71.46,5.34,2.36,10.33,5.04,14.98"/>
  <path class="cls-1" d="m250,.82c5.77,5.94,10.65,12.38,13.45,20.37,2.57,7.34,1.18,13.7-3.6,19.45-5.8,6.98-13.59,11.24-21.65,14.98-13.8,6.4-28.09,11.73-41.71,18.55-7.75,3.88-15.32,8.07-20.77,15.22-2.96,3.88-4.19,8.15-3.36,12.76.63,3.5,3.15,6.05,5.92,8.34,6.81,5.62,14.99,8.46,22.96,11.77,8.84,3.67,17.81,7.03,25.52,13.02,7.94,6.16,12.79,13.95,14.39,23.93.59,3.72,1.52,7.4,1.16,11.16-.67,7.14-2.16,14.04-4.98,20.76-6,14.3-15.83,25.87-25.54,37.6-5.63,6.8-11.37,13.53-14.12,22.26-1.66,5.3-2.45,10.54-1.19,15.95,3.01,12.93,9.34,24.28,16.85,35.07,8.79,12.63,19,24.15,28.36,36.33,7.33,9.54,14.45,19.23,19.44,30.27,2.33,5.16,4.23,10.48,5.73,15.94,1.98,7.22,2.5,14.75,1.4,21.96-1.49,9.76-8.17,15.3-17.95,16.93-5,.83-10.01,1.96-14.6,3.95-6.43,2.78-10.34,8.28-12.43,14.87-2.19,6.92-3.04,14.09-2.56,21.34.54,8.13,2.23,16.09,4.48,23.89,2.44,8.47,5.2,16.91,6.74,25.55.95,5.31,1.13,10.9.43,16.56-.99,7.93-3.93,14.8-8.56,20.95-5.01,6.65-11.36,11.99-18.04,17.01-7.25,5.45-14.33,11.27-18.79,19.41-3.35,6.1-5.32,12.6-5.93,19.72-.92,10.63,1.2,20.48,4.86,30.32,3.71,9.97,9.58,18.64,15.38,27.37,6,9.02,12.25,17.9,16.79,27.78,1.73,3.78,2.94,7.84,3.26,12.08.58,7.75-2.49,14.44-6.46,20.67-3.49,5.48-6.61,11.1-8.45,17.28-1.73,5.81-2.09,11.7-.81,17.85,2.55,12.24,8.81,22.41,16.35,32.01"/>
  <path class="cls-1" d="m42.28,162.09c3.29,2.44,6.58,4.89,9.88,7.33"/>
  <path class="cls-1" d="m200.94,336.1c4.09,6.21,8.23,12.39,10.84,19.44,2.06,5.56,3.74,11.21,3.14,17.21-.52,5.22-3.84,8.38-8.22,10.89-5.46,3.13-11.49,4.98-16.95,8.17-16.54,9.66-23.28,28.23-20.72,45.97,1.77,12.25,6.74,23.41,11.26,34.71,5.01,12.53,8.16,25.32,7.61,38.91-.5,12.39-4.83,23.39-11.83,33.45-2.21,3.17-4.65,6.18-6.99,9.26"/>
  <path class="cls-1" d="m574,.5c1.52.28,2.39,1.35,3.19,2.55,6.06,8.99,10.48,18.69,12.74,29.32,2.25,10.6.26,20.82-2.87,30.91-3.4,10.96-8.86,21.11-12.7,31.89-4.97,13.96-7.63,28.13-4.25,43.03,2.84,12.48,8.62,23.32,16.62,33.14,5.59,6.85,12.51,12.34,18.76,18.52,2.55,2.52,5.63,4.85,6.1,8.88"/>
  <path class="cls-1" d="m291.1.5c7.31,6.89,13.03,14.86,14.85,24.88.97,5.36-1.37,10.24-4.99,14.31-4.65,5.23-10.71,8.56-16.9,11.41-11.49,5.29-23.42,9.61-34.67,15.42-5.83,3.01-11.43,6.33-15.71,11.68-5.97,7.47-4.02,15.33,2.91,20.82,8.12,6.43,17.86,9.76,26.79,14.62,8.52,4.63,16.64,9.73,21.68,18.48,3.48,6.04,5.38,12.52,5.7,19.45.13,2.86,0,5.74.03,8.6.1,10.27-3.37,19.55-7.61,28.7-6.93,14.93-17.22,27.61-26.79,40.79-5.33,7.34-9.99,15.1-12.37,23.91-1.87,6.97-2.05,14.07-1.15,21.35,1.36,10.97,5.28,21.02,10.44,30.52,4.97,9.15,10.9,17.77,17.03,26.24,7.77,10.74,15.58,21.47,22.08,33.09,4.1,7.33,7.54,14.99,9.65,23.02,1.69,6.43,1.94,13.22,1.6,20.04-.36,7.18-2.21,13.76-5.93,19.71-3.89,6.21-9.41,10.72-16.16,13.79-5.79,2.64-11.87,4.6-17.26,8.19-7.41,4.94-10.75,12.19-12.35,20.46-2.27,11.71.31,22.87,4.43,33.77,2.31,6.11,5.09,12.02,7.38,18.15,4.93,13.17,1.38,24.38-7.78,34.07-7.75,8.2-17.38,14.03-26.97,19.9-8.13,4.98-15.99,10.43-21.75,18.38-4.59,6.33-7.13,13.26-7.64,21.06-.58,8.89,1.14,17.33,5.2,25.14,3.98,7.66,9.16,14.55,15.21,20.77,7.98,8.2,16.13,16.25,22.92,25.51,3.17,4.33,5.8,8.93,7.11,14.3,2.01,8.26-.62,15.44-4.59,22.3-3.12,5.4-6.22,10.77-7.58,16.93-1.66,7.55-.64,14.88,2.22,21.99,4.03,10.01,10.05,18.73,17.57,26.4,1.12,1.14,1.63,2.97,3.45,3.4"/>
  <path class="cls-1" d="m588.02.82c1.18.13,1.63.98,2.27,1.88,6.13,8.68,10.22,18.21,11.7,28.72,1.47,10.43-.44,20.46-4.06,30.28-3.85,10.42-9.22,20.18-13.09,30.59-4.75,12.78-6.86,25.98-4.7,39.5,1.73,10.85,6.03,20.79,12.65,29.66,4.81,6.44,10.36,12.14,16.57,17.2,1.13.92,1.85,2.11,2.23,3.51"/>
  <path class="cls-1" d="m304.8.82c5.12,5.39,9.75,11.11,12.42,18.17,3.28,8.66,1.56,16.18-5.71,22.65-6.72,5.99-14.95,9.15-22.97,12.69-10.4,4.59-21.13,8.47-30.58,15-3.15,2.18-6.07,4.74-7.87,8.03-3.01,5.5-2.86,10.51,1.54,15.53,4.62,5.27,10.68,8.63,16.83,11.86,9.44,4.95,18.72,10.19,25.49,18.78,6.56,8.31,10.23,17.61,10.95,28.35.9,13.38-2.68,25.55-8.42,37.29-6.01,12.3-14.13,23.27-21.92,34.46-5.17,7.43-10.19,15.06-13.34,23.59-3.48,9.43-4.18,19.2-3.07,29.3,1.65,14.94,7.67,28.03,15.02,40.82,6.89,11.99,15.5,22.74,23.33,34.06,6.83,9.88,13.17,20.02,16.87,31.56,2.9,9.06,3.77,18.18,2.35,27.74-2.54,17.18-12.28,28.58-27.18,36.33-3.88,2.02-7.78,4.04-11.45,6.4-8.22,5.29-12.63,13.11-14.37,22.59-2.03,11.08.66,21.34,5.43,31.23,2.31,4.8,5.16,9.32,7.6,14.05,5.73,11.1,4.3,21.4-3.77,30.91-5.65,6.66-12.48,11.83-19.72,16.63-8.97,5.94-18.66,10.75-27.12,17.46-8.33,6.61-14.9,14.33-17.29,25.16-1.42,6.41-1.23,12.6.42,18.82,2.39,9.02,7.41,16.54,13.7,23.25,7.3,7.8,15.43,14.74,23.21,22.03,5.6,5.25,10.68,11.01,14.34,17.83,3.76,7.02,3.74,14.26,1.01,21.67-2.04,5.52-5.65,10.13-8.41,15.23-5.19,9.58-5.68,19.04-1.54,29.08,5,12.11,12.88,22.09,22.07,31.17.56.56.58,1.89,1.87,1.64"/>
  <path class="cls-1" d="m533.86.82c2.14.63,2.98,2.61,4.1,4.17,7.78,10.89,13.36,22.75,16.02,35.97,2,9.94,1.14,19.61-1.28,29.34-2.23,8.98-5.83,17.43-9.64,25.79-5.47,12-9.95,24.26-10.1,37.63-.1,9.23,2.08,18.08,6,26.45,6.18,13.19,15.28,24.14,25.74,34.16,8.19,7.85,16.93,15.21,23.34,24.78,8.25,12.32,8.9,25.18,2.44,38.22-5.07,10.24-13.08,18.11-22.2,24.93-6.92,5.18-14.71,9.05-21.41,14.57-3.32,2.73-6.35,5.58-8.57,9.29-4.11,6.85-1.5,12.62,4.79,16.91,3.33,2.28,6.72,4.47,9.93,6.95,5.03,3.89,6.57,9.2,3.46,15.67-2.84,5.9-7.27,10.39-12.4,14.37-8.99,6.98-19.35,11.74-28.71,18.11-7.93,5.39-15.05,11.6-19.02,20.46-4.52,10.09-3.72,20.43.26,30.55,4.3,10.92,11.48,20,18.75,29.03,6.98,8.68,13.75,17.52,17.24,28.34,2.35,7.27,3.62,14.52,2.7,22.33-.98,8.28-3.09,16.06-6.53,23.57-3.25,7.09-7.27,13.7-11.73,20.12-4.89,7.06-10.16,13.81-15.72,20.31-6.82,7.97-13.67,15.92-20,24.28-8.43,11.16-15.83,22.93-18.47,36.96-3.39,17.97,1.51,33.72,13.34,47.49,5.78,6.72,13.08,11.39,20.72,15.59,5.47,3,11.1,5.94,15.52,10.3,7.57,7.47,10.34,14.99.99,25.68-5.76,6.59-13.11,11.23-20.97,15.04-3.64,1.77-7.28,3.55-10.54,6.02-1.16.88-2.23,1.83-3.15,2.91-2.48,2.92-2.65,5.97-1.07,9.58,1.83,4.18,4.96,7.13,8.08,10.13,5.65,5.44,12.3,9.71,17.85,15.29.26.27,1.03.03,1.56.03"/>
  <path class="cls-1" d="m343.34,792.18c-.32,0-.78.14-.94-.02-10.52-10.5-21.77-20.35-29.34-33.44-2.86-4.95-5.11-10.16-4.69-15.94.47-6.38,3.8-11.36,8.82-15.33,4.47-3.54,9.56-6.21,13.74-10.15,5.63-5.31,5.71-10.73,2.11-16.84-5.16-8.76-11.91-16.26-19.56-23.11-8.64-7.74-17.66-15.01-26.27-22.79-5.26-4.76-10.43-9.56-14.89-15.06-4.39-5.41-7.89-11.25-8.68-18.46-.79-7.18,1.43-13.33,5.8-18.79,6.76-8.44,15.99-13.56,25.49-18.14,12.54-6.04,25.6-11.06,37.25-18.85,7.83-5.24,15.15-11.14,19.38-19.78,7.18-14.69,4.66-27.06-7.3-38.18-4.24-3.94-8.79-7.63-12.32-12.2-5.43-7.03-6.25-14.92-2.94-23.21,3.19-8.01,7.76-15.16,13.38-21.68,11.19-12.96,22.53-25.8,31.58-40.45,4.67-7.57,8.52-15.45,10.14-24.25,2.16-11.79.11-22.78-6.65-32.83-5.08-7.56-11.27-14.14-17.48-20.76-10.7-11.4-20.52-23.54-25.8-38.53-5.48-15.56-6.76-31.33-.7-47.15,3.91-10.2,10.79-17.94,19.77-23.88,7.19-4.76,15.15-8.17,22.56-12.53,7.77-4.58,15.54-9.62,18.12-19.06,2.04-7.46.63-14.91-2.2-21.95-3.96-9.84-9.9-18.46-16.79-26.51-7.14-8.35-14.78-16.23-22.26-24.26-7.08-7.59-14.69-14.76-20.49-23.5-2.79-4.21-5.48-8.31-5.47-13.72.01-4.54,1.91-7.76,5.49-10.19,5.77-3.92,12.4-5.29,19.09-6.78,10.46-2.33,21.25-3.76,30.32-10.39,5.08-3.72,7.63-8.49,7.96-14.7.57-10.94-3.85-20.2-9.62-28.98-1.78-2.7-3.7-5.35-5.97-7.72-.61-.63-.94-1.38-1.96-1.23"/>
  <path class="cls-1" d="m611.59,248.46c-.82,5.61-4.36,9.86-7.37,14.31-5.76,8.53-13.16,15.73-19.68,23.64-2.74,3.32-5.06,6.93-7.1,10.78-5.5,10.37-1.75,14.96,5.8,19.47,2.62,1.57,5.1,3.3,7.34,5.4,4.63,4.35,4.93,9.68,3.46,15.31-2.76,10.53-10.63,17.1-18.81,23.22-7.82,5.87-16.39,10.69-24.15,16.65-5.28,4.06-10.19,8.52-13.74,14.3-4.43,7.22-4.77,15.03-3.11,22.95,2.86,13.67,11.43,23.93,20.99,33.46,7.26,7.24,14.46,14.57,19.34,23.65,5.81,10.81,6.34,22.27,2.99,34.07-2.66,9.37-7.18,17.77-12.49,25.79-8.29,12.52-18.35,23.69-27.7,35.39-9,11.27-17.72,22.75-24.18,35.71-5.93,11.9-9.51,24.47-8.25,37.9,1.11,11.84,7.32,20.59,17.43,26.82,7.36,4.54,15.73,6.37,23.61,9.49,6.36,2.52,12.72,4.88,16.9,10.85,4.32,6.18,4.01,12.54,1.26,19.14-3.48,8.35-9.99,14.29-16.28,20.37-8.66,8.37-18.64,15.27-27.07,23.92-3.4,3.49-5.35,7.62-4.35,12.42.82,3.93,3.44,7.1,6.29,9.88,6.21,6.06,13.14,11.3,19.79,16.84.91.76,1.58,2.63,3.45,1.82"/>
  <path class="cls-1" d="m611.59,509.8c-.34,3.57-2.86,6.03-4.86,8.54-6.78,8.47-13.88,16.68-20.95,24.92-9.66,11.25-18.55,23.07-25.74,36.05-4.29,7.74-7.36,16.12-8.48,24.85-.92,7.2-1.43,14.55,1.93,21.71,3.21,6.84,8.55,10.62,15.1,13.32,7.52,3.1,15.56,4.5,23.25,7.04,6.02,1.99,11.89,4.32,16.61,8.86,1.89,1.82,2.96,3.85,3.15,6.41"/>
  <path class="cls-1" d="m104.73,97.71c-4.46,3.81-8.01,8.16-9.6,14.01-1.87,6.85.75,12.28,5.53,16.5,8.7,7.68,19.45,11.89,29.84,16.73,9.25,4.31,18.45,8.95,25.79,16.23,9.17,9.09,12.86,20.02,11.01,33.12-1.57,11.12-7.37,19.9-13.54,28.65-1.96,2.77-4.22,5.33-6.35,7.99"/>
  <path class="cls-1" d="m190.11,552.19c5.26-6.35,9.87-13.07,12.44-21.03,2.56-7.91,3.38-15.98,2.53-24.23-1.33-12.86-5.59-24.98-9.09-37.33-3.04-10.75-5.99-21.7-5.22-33.1.7-10.4,3.06-20.18,11.44-27.42,4.37-3.78,9.47-6.08,14.97-7.66,3.42-.98,6.92-1.66,10.21-3.14,5.71-2.56,8.68-6.66,8.63-13.1-.08-11.03-3.56-21.01-8.64-30.6-6.33-11.96-14.86-22.26-23.9-32.19-9.21-10.12-19.63-19.04-28.94-29.05-7.98-8.58-15.91-17.3-21.05-28.01-4.38-9.13-3.51-17.94,2.53-26.11,6.66-9,14.75-16.87,20.75-26.43,5.2-8.28,9.13-16.82,9.56-26.81.38-8.81-1.07-16.92-6.37-24.27-4.32-5.99-9.75-10.55-15.99-14.3"/>
  <path class="cls-1" d="m157.61,56.91c-11.73,8.32-24.85,13.98-37.91,19.77-13.25,5.87-26.76,11.21-39.19,18.79-6.27,3.82-11.98,8.19-16.28,14.32-6.07,8.64-5.54,18.63,1.92,26.19,5.89,5.97,12.72,10.48,20.09,14.33,5.48,2.86,10.84,5.93,16.26,8.9"/>
  <path class="cls-1" d="m264.02.82c6.27,5.95,11.26,12.84,13.93,21.06,2.12,6.54.75,12.75-3.73,18.14-5.64,6.79-13.25,10.76-21.05,14.29-11.7,5.3-23.63,10.08-35.31,15.41-7.57,3.46-14.88,7.5-20.73,13.65-2.43,2.55-4.2,5.56-5.05,8.93-1.48,5.87,1.51,10.07,5.68,13.7,7.24,6.29,16.29,9.02,24.84,12.76,9.63,4.22,19.47,8.04,26.81,16.2,5.31,5.9,8.32,12.72,9.49,20.44.98,6.4.63,12.67-.45,19.15-2.28,13.57-9.17,24.71-16.72,35.68-5.89,8.56-12.9,16.24-19.13,24.53-4.04,5.38-7.67,11.02-9.51,17.54-1.65,5.85-1.74,11.71-.85,17.86,1.33,9.21,4.89,17.57,9.28,25.36,5.49,9.75,11.94,18.99,18.87,27.88,10.08,12.93,20.31,25.77,28.43,40.11,4.39,7.76,7.67,15.98,9.74,24.58,1.49,6.2,1.93,12.68,1.36,19.09-1.02,11.48-8.45,20.08-19.72,23.28-5.27,1.5-10.72,2.38-15.63,5.06-5.63,3.07-9.01,7.72-11.22,13.7-3.02,8.15-2.78,16.55-2.34,24.88.38,7.15,2.24,14.2,4.42,21.01,2.44,7.62,5.31,15.18,6.69,23.02.8,4.56,1.04,9.39.44,14.33-1.65,13.45-9.48,22.49-19.29,30.61-6.72,5.56-14.25,10.03-20.78,15.86-7.36,6.56-12.61,14.53-14.74,23.99-1.41,6.25-1.28,12.8-.38,19.42,1.8,13.15,7.68,24.42,14.96,34.95,7,10.13,14.97,19.59,21.53,30.05,4.33,6.9,7.25,14.24,6.37,22.62-.45,4.35-1.9,8.36-4.13,12.12-2.81,4.75-5.71,9.44-7.67,14.65-3.45,9.12-3.41,18.14-.38,27.44,3.46,10.61,9.81,19.34,16.64,27.86"/>
  <path class="cls-1" d="m88.8,98.98c-3.74,3.24-7.28,6.59-9.6,11.13-4.26,8.36-2.86,15.06,2.94,21.34,4.4,4.76,9.79,8.27,15.57,11.21,8.43,4.28,16.91,8.48,25.15,13.1,9.62,5.39,18.51,11.86,23.22,22.28,5.24,11.6,4.18,23.15-1.53,34.39-3.25,6.4-7.38,12.21-11.79,17.85"/>
  <path class="cls-1" d="m506.46.82c1.44-.41,1.97.95,2.49,1.64,8.93,11.6,15.73,24.32,19.44,38.53,1.65,6.33,2.85,12.85,2.23,19.42-1.02,10.83-3.89,21.16-8.82,30.94-4.34,8.63-9.82,16.63-13.74,25.48-3.47,7.82-5.54,16.04-4.03,24.52,1.65,9.24,5.29,17.84,10.35,25.87,6.87,10.89,15.24,20.5,24.24,29.63,7.7,7.81,15.74,15.3,22.93,23.59,5.49,6.33,10.19,13.12,11.85,21.64,2,10.22-.79,19.09-7.41,26.74-7.74,8.94-17.96,13.61-29.23,16.74-8.15,2.27-16.51,4.21-23.66,9.36-5.72,4.13-8.89,9.27-7.84,16.31.78,5.27,4.17,9.08,8.17,12.49,4.06,3.46,8.81,5.94,12.82,9.47,1.75,1.54,3.24,3.18,4.42,5.15,2.42,4.05,1.04,7.87-.99,11.45-3.32,5.83-8.36,10.17-13.71,13.98-6.06,4.32-12.67,7.89-18.71,12.24-8.82,6.35-17.77,12.79-23.84,21.99-6.13,9.3-8.22,19.77-6.13,30.85,2.08,11.06,8.41,19.74,15.53,28.1,6.82,8.02,13.9,15.93,18.23,25.76,3.81,8.64,6.13,17.61,6.03,27.1-.15,14.22-4.41,27.31-11.49,39.5-5.78,9.96-13.06,18.76-20.91,27.19-7.74,8.31-16.16,15.93-23.67,24.45-7.7,8.73-14.51,17.88-17.89,29.32-3.81,12.92-2,25.01,4.22,36.67,7.5,14.06,18.56,24.94,30.85,34.8,7.05,5.66,13.9,11.63,18.84,19.39,5.49,8.64,2.77,15.2-4.12,19.79-5.13,3.41-10.71,5.58-16.56,7.39-4.16,1.29-8.49,2.39-12.13,5.01-4.56,3.29-6.84,6.04-3.24,13.09,1.91,3.76,4.59,6.91,7.46,9.78,5.63,5.63,12.3,10.15,17.81,15.97.22.24,1.02-.07,1.55-.12"/>
  <path class="cls-1" d="m438.92.82c3.09.52,3.84,3.58,5.28,5.52,6.23,8.4,11.71,17.24,15.2,27.28,3.04,8.76,5.02,17.6,3.65,26.79-1.35,9.08-6.21,16.21-13.6,21.71-6.41,4.76-13.92,7.44-20.76,11.39-3.89,2.25-7.51,4.73-10.13,8.37-3.94,5.47-2.89,11.36-.97,17.19,3.52,10.7,10.4,19.38,17.23,28.02,8.22,10.4,17.35,20.03,26.04,30.03,10.55,12.13,21.14,24.26,29.36,38.21,3.15,5.35,5.52,11.04,5.95,17.22.4,5.69-1.69,10.53-6.57,14.06-4.07,2.94-8.64,4.3-13.41,5.39-10.18,2.34-20.69,2.38-30.9,4.46-6.48,1.32-12.82,2.88-18.52,6.62-9.49,6.25-11.85,15.46-11.05,25.86.77,9.93,5.65,18.2,11.72,25.82,6,7.53,13.6,13.38,20.66,19.81,3.28,2.99,6.36,6.17,8.73,10.1,3.79,6.28,3.57,12.42.87,18.86-4.57,10.93-12.74,19.1-21.08,27.04-12.07,11.5-23.21,23.73-31.46,38.31-3.58,6.33-5.88,13.1-7.15,20.36-1.86,10.66,2.14,18.95,9.01,26.48,4.97,5.44,10.75,10.05,15.67,15.57,9.15,10.26,12.98,22.28,11.63,35.72-1.18,11.72-6.03,22.13-13.58,31.26-8.99,10.87-20.25,18.85-32.15,26.19-9.37,5.78-19.13,11-27.47,18.38-5.72,5.07-10.61,10.63-13.36,17.88-3.46,9.1-1.73,17.73,2.27,26.13,3.12,6.55,7.64,12.16,12.42,17.52,9.38,10.52,20.17,19.57,30.56,29.02,7.78,7.08,15.48,14.27,20.68,23.6,1.62,2.91,3.56,5.84,2.29,9.55-.95,2.78-2.91,4.49-5.44,5.73-4.68,2.29-9.71,3.57-14.66,5.09-5.61,1.72-11.29,3.24-15.63,7.63-2.67,2.71-3.18,5.93-2.15,9.25,2.3,7.41,6.82,13.52,12.04,19.15,6.14,6.62,13.05,12.44,19.46,18.77.22.21.82.03,1.25.03"/>
  <path class="cls-1" d="m610.95,344.71c-3.37,5.26-8.23,9.01-13.08,12.72-8.3,6.35-17.08,12.11-24.78,19.2-6.29,5.78-11.58,12.38-12.78,21.3-1.26,9.34,1.57,17.7,6.39,25.48,5.51,8.91,13.19,15.84,21,22.65,7.21,6.29,13.52,13.29,17.9,21.96,3.86,7.64,3.84,15.57,2.45,23.6-2.26,12.97-9.31,23.66-17.21,33.75-7.72,9.86-15.92,19.34-23.83,29.05-10.05,12.33-19.58,25.05-25.76,39.85-4.71,11.29-7.52,22.93-5.2,35.36,1.54,8.29,6.45,13.82,13.44,17.82,6.15,3.52,13,5.15,19.74,7.04,6.83,1.91,13.81,3.65,19.71,7.71,9.47,6.52,12.54,16.5,6.73,29.25-3.28,7.2-8.39,13.09-13.72,18.78-8.53,9.11-17.96,17.3-26.7,26.19-2.96,3.01-5.56,6.35-8.06,9.8-4.76,6.54-4.61,13.93.32,20.81,4.1,5.72,9.42,10.14,14.44,14.89,3.61,3.42,7.67,6.35,11.38,9.66.76.68,1.28.43,1.96.42"/>
  <path class="cls-1" d="m197.12,323.35c6.63,7.42,13.04,14.99,18.18,23.57,5.34,8.91,9.44,18.34,10.37,28.71.67,7.43-1.78,11.86-9.09,15.35-5.31,2.53-11.06,3.77-16.34,6.51-10.88,5.66-16.71,14.38-19.18,26.23-1.91,9.16-.89,17.94,1.1,26.8,2.5,11.16,6.94,21.69,10.45,32.53,2.7,8.36,4.32,17.03,4.42,25.8.13,12.15-3.07,23.49-9.76,33.8-4.8,7.41-10.81,13.8-16.61,20.37-7.4,8.38-13.65,17.46-16.47,28.4-1.68,6.54-1.98,13.19-.86,20.08,1.82,11.26,6.35,21.33,11.62,31.21,5.62,10.52,12.17,20.56,16.83,31.58,3.17,7.51,5.92,15.13,5.88,23.56-.03,6.89-2.39,12.78-5.81,18.5-2.71,4.52-6.76,7.99-9.58,12.42"/>
  <path class="cls-1" d="m163.98,85.6c-3.26,2.14-5.99,4.88-8.25,7.99-4.9,6.78-4.8,15.77,2.76,21.42,6.23,4.66,13.06,7.85,20.14,10.74,10.45,4.26,21.23,7.88,30.26,14.99,9.67,7.62,14.2,17.78,15.03,29.94.79,11.62-2.96,21.95-8.35,31.86-6.34,11.64-15.25,21.34-23.86,31.25-4.6,5.29-8.52,11.17-10.34,17.89-1.2,4.43-.86,9.25.36,14,3.3,12.81,10.78,23.19,18.58,33.43,7.59,9.97,16.23,19.05,24.23,28.67,9.89,11.9,19.32,24.08,25.77,38.27,3.5,7.71,6.12,15.62,6.86,24.2.36,4.12.57,8.15-.23,12.11-1.25,6.11-5.12,10.12-11.07,12.14-4.37,1.48-8.96,1.95-13.4,3.13-8.31,2.2-14.85,6.42-18.14,14.71-1.66,4.2-2.77,8.64-3.08,13.07-.41,6.04-.36,12.13.8,18.17,1.74,9.06,4.12,17.92,6.61,26.8,2.07,7.38,3.93,14.93,4.5,22.6,1.14,15.24-2.32,29.04-13.24,40.53-5.62,5.92-11.82,11.13-17.86,16.56-9.3,8.36-15.55,18.79-17.02,31.22-.77,6.54-.48,13.3.86,20.09,2.93,14.9,9.82,27.85,17.74,40.42,4.98,7.9,9.73,15.93,13.97,24.25,3.61,7.08,5.75,14.58,4.75,22.61-.61,4.87-2.71,9.32-5.41,13.36-3.96,5.92-7.92,11.86-10.39,18.54-2.1,5.68-3.02,11.62-2.38,17.82,1.34,12.91,7.49,23.55,15.04,33.62"/>
  <path class="cls-1" d="m611.59,256.74c-1.23,5.6-5.45,9.32-8.6,13.7-5.2,7.23-10.87,14.12-14.69,22.29-5,10.7-1.84,15.19,6.39,20.12,2.8,1.67,5.47,3.43,7.73,5.97,4.47,5.03,4.76,10.57,3.13,16.64-2.52,9.35-9,15.59-16.24,21.38-8.44,6.75-17.69,12.38-26.12,19.12-5.66,4.52-10.9,9.58-13.98,16.25-3.32,7.19-3.2,14.66-1.08,22.3,2.78,9.98,8.8,17.81,15.68,25.15,5.65,6.03,12.07,11.29,17.54,17.52,8.12,9.24,13.65,19.5,13.01,32.21-.49,9.75-3.88,18.69-8.62,27.07-7.22,12.77-16.75,23.86-26.07,35.09-9.56,11.52-19.03,23.13-26.75,36.02-6.04,10.08-10.83,20.71-12.43,32.5-1.34,9.87-1.14,19.47,5.05,28.06,4.78,6.64,11.35,10.56,18.81,13.39,8.76,3.33,18.13,4.95,26.46,9.51,7.74,4.24,12.11,10.51,11.37,19.46-.54,6.57-3.63,12.33-7.59,17.52-6.66,8.71-14.89,15.9-22.91,23.28-6.36,5.85-13.26,11.21-18.42,18.21-5.13,6.94-5,12.38.62,19.68,7.01,9.1,16.97,15.07,25.16,22.94.25.24,1.03-.07,1.56-.12"/>
  <path class="cls-1" d="m277.08.5c6.18,4.97,10.62,11.28,13.66,18.5,4.71,11.21.63,18.76-7.95,25.45-6.24,4.87-13.46,8.09-20.69,11.17-11.81,5.03-23.82,9.64-35.02,15.98-5.05,2.85-9.81,6.16-13.06,11.14-4.78,7.32-3.85,13.04,2.29,18.71,5.07,4.68,11.36,7.65,17.76,10.3,9.42,3.9,18.96,7.73,27.03,14.07,7.75,6.09,12.43,14.16,13.84,24.14.57,4.04,1.45,8.03,1.16,12.12-.41,5.64-1.49,11.14-3.1,16.59-4.2,14.15-12.38,25.98-21.04,37.62-5.35,7.19-11.02,14.13-16.06,21.58-6.73,9.95-9.89,20.71-8.75,32.56.66,6.82,2.69,13.41,5.34,19.77,5.8,13.93,14.48,26.12,23.24,38.26,7.42,10.28,15.18,20.3,21.72,31.2,4.87,8.13,9.14,16.56,11.89,25.57,1.26,4.1,1.45,8.69,2.27,12.98,1.1,5.75.14,11.25-1.01,16.57-1.57,7.3-5.74,13.24-12.17,17.67-5.53,3.81-11.84,5.36-17.94,7.47-10.02,3.47-15.72,10.23-18.24,20.45-1.74,7.04-1.59,14.13-.94,21.04.68,7.27,2.67,14.48,5.44,21.4,2.24,5.6,4.21,11.36,5.73,17.2,3.23,12.39,1.14,23.76-7.24,33.78-6.72,8.05-15.33,13.73-23.93,19.4-8.53,5.63-16.85,11.45-22.28,20.43-3.5,5.78-5.3,12-5.81,18.8-1.3,17.24,5.57,31.42,15.64,44.65,7.33,9.63,15.97,18.19,22.71,28.3,3.17,4.76,6.4,9.53,7.81,15.04,1.59,6.22,1.19,12.57-1.83,18.45-2.32,4.52-5.2,8.79-7.22,13.43-2.98,6.85-4.56,13.88-3.41,21.66,1.74,11.81,7.44,21.46,14.52,30.55,2.12,2.72,3.98,5.73,6.98,7.68"/>
  <path class="cls-1" d="m345.26.5c3.67,2.02,5.32,5.77,7.62,8.94,4,5.53,7.04,11.66,7.57,18.47.74,9.52-2.42,16.01-11.39,20.66-6.79,3.52-14.26,5.16-21.62,7.15-7.65,2.07-15.46,3.73-22.36,8.14-9.16,5.84-11.15,15.55-4.73,24.92,4.61,6.73,10.89,11.81,16.84,17.25,12.03,11,23.54,22.48,31.59,36.92,3.83,6.88,6.31,14.21,6.92,22.01.76,9.76-3.05,18.05-9.14,25.51-7.38,9.02-16.88,15.83-24.9,24.17-9.85,10.24-16.45,22.26-19.28,36.07-2.06,10.06-1.94,20.31-.51,30.58,2.63,18.87,11.52,34.66,23.36,49.05,6.81,8.28,14.2,16.08,20.36,24.88,7.03,10.05,11.25,21.1,11.09,33.47-.12,9.79-2.88,19.09-7.36,27.68-5.44,10.44-12.67,19.66-20.91,28.12-7.24,7.42-15.35,14.05-21.35,22.62-3.82,5.46-6.7,11.29-7.43,18.14-.72,6.76,1.75,12.31,5.5,17.53,3.18,4.43,7.47,7.83,11.12,11.82,3.27,3.58,5.69,7.62,7.1,12.39,2.05,6.93-.07,13-3.31,18.8-5.25,9.4-13.85,15.17-22.88,20.44-11.91,6.95-24.83,11.98-36.64,19.12-7.79,4.71-15.03,10.02-19.79,18.13-6.94,11.83-6.4,23.16,2.23,34.14,7.22,9.2,16.59,15.96,25.52,23.24,7.53,6.14,15.15,12.19,21.96,19.15,4.58,4.68,8.67,9.87,11.72,15.64,3.65,6.9,3.55,11.93-1.87,19.03-2.64,3.45-5.85,6.46-8.82,9.64-4.6,4.91-7.74,10.6-8.72,17.48-.8,5.61,1.18,10.44,3.28,15.3,2.95,6.84,7.47,12.7,12.45,18.13,5.07,5.53,10.56,10.68,15.88,15.98.43.42.74,1.18,1.59.8"/>
  <path class="cls-1" d="m182.46,560.48c-3.7,4.27-7.98,8.01-11.16,12.74-5.16,7.67-8.69,15.86-9.96,25.17-1.68,12.35,1.65,23.61,6.15,34.75,4.81,11.89,11.86,22.64,17.54,34.09,3.46,6.96,6.93,13.94,9.16,21.38,2.83,9.44,2.56,18.57-2.71,27.45-3.96,6.69-9.3,12.33-13.22,19.03-4.42,7.55-7.75,15.3-7.27,24.26.49,9.17,3.44,17.62,8.04,25.45,1.44,2.45,2.23,5.41,4.7,7.21"/>
  <path class="cls-1" d="m548.51,1.14c8.58,10.67,14.48,22.7,17.46,36.03,2.52,11.29,1.02,22.43-2.14,33.46-3.25,11.34-8.97,21.7-12.82,32.8-2.52,7.28-4.45,14.62-5.07,22.32-1.7,21.28,6.82,38.72,20.05,54.53,6.21,7.42,13.64,13.56,20.39,20.4,5.59,5.66,10.94,11.52,14.09,19.08,4.86,11.68,3.84,22.93-1.6,34.13-6.32,13.01-16.19,22.82-27.4,31.57-6.35,4.95-12.73,9.92-17.57,16.52-1.46,1.99-2.76,4.13-3.39,6.42-.96,3.48-.38,6.6,2.35,9.64,3.44,3.82,8.13,5.61,11.97,8.74,5.63,4.6,7.44,9.58,4.14,17.01-3.55,7.98-9.91,13.18-16.64,18.13-6.16,4.54-13.01,8-19.39,12.17-7.28,4.76-14.46,9.69-19.82,16.81-5.04,6.68-6.85,14.2-6.3,22.33.79,11.77,6.16,21.65,13,30.94,6.69,9.08,14.94,16.9,21.05,26.44,7.04,10.99,10.69,22.84,8.92,36.01-1.21,9-4.07,17.47-8.28,25.49-8.4,15.98-20.14,29.54-31.51,43.37-7.48,9.1-14.94,18.24-21.03,28.36-4.81,8-9.1,16.33-11.1,25.5-2.7,12.35-2.83,24.56,3.06,36.35,4.6,9.21,11.81,15.61,20.46,20.67,5.83,3.41,12.21,5.73,18.15,8.95,4.79,2.6,9.42,5.44,12.42,10.2,4.56,7.25,2.75,14.01-1.91,20.38-5.46,7.45-12.65,12.97-20.37,17.86-5.3,3.36-11,6.2-15.57,10.56-5.26,5.02-5.72,8.98-1.32,15.57,1.94,2.91,4.46,5.33,7.04,7.61,5.42,4.79,11.03,9.37,16.52,14.08.72.62,1.45.61,2.25.62"/>
  <path class="cls-1" d="m318.5.5c6.71,5.99,11.47,13.31,13.62,22.01,2.1,8.5-2.06,16.28-10.41,21.69-7.67,4.96-16.29,7.8-24.54,11.46-8.13,3.61-16.53,6.73-23.59,12.4-3.42,2.75-6.49,5.77-7.63,10.2-1.31,5.09.44,9.32,3.81,13.06,4.98,5.51,11.32,9.24,17.56,13.01,11.56,6.98,20.52,16.41,26.98,28.14,3.08,5.59,4.84,11.74,5.85,18.12,1.95,12.37-1.61,23.42-7.34,34.13-5.25,9.81-11.81,18.75-17.85,28.04-5.92,9.11-12.24,17.98-16.59,28.03-5.5,12.7-7.2,25.78-5.16,39.54,2.81,18.94,11.55,35.16,22.06,50.66,6.57,9.69,14.26,18.58,20.71,28.36,5.16,7.83,9.78,15.83,11.85,25.17,1.6,7.23,2.17,14.3,1,21.71-1.52,9.63-4.98,18.22-10.58,26.16-3.67,5.21-8.11,9.52-13.12,13.35-7.51,5.74-15.7,10.62-22.31,17.52-6.93,7.24-9.78,16.1-9.11,25.81.6,8.7,4.18,16.55,9.41,23.61,3.44,4.65,7.36,8.99,9.28,14.64,1.99,5.85,1.55,11.37-1.25,16.92-4.75,9.42-12.7,15.59-21.09,21.31-11.91,8.12-25.29,13.91-36.63,22.96-6.98,5.57-13.09,11.79-16.25,20.4-4.3,11.72-2.2,22.52,4.82,32.49,6,8.53,14.01,15.07,21.9,21.75,8.31,7.04,17.16,13.55,23.94,22.26,3.37,4.33,6.44,8.9,7.61,14.35,1.31,6.13-.8,11.67-3.8,16.87-3.01,5.21-6.89,9.88-9.52,15.32-4.48,9.27-3.98,18.46.27,27.74,5.51,12.04,14.09,21.7,23.38,30.81.5.49.77,2.02,2.14,1.53"/>
  <path class="cls-1" d="m358.64.5c4.3,3.02,6.71,7.62,9.5,11.83,3.62,5.47,5.86,11.58,6.75,18.13,1.24,9.15-2.86,16.63-10.2,20.7-8.04,4.47-17.01,6.1-25.79,8.32-7.35,1.86-14.86,3.2-21.38,7.59-7.45,5.01-8.08,12.06-4.39,19.15,2.75,5.29,6.76,9.71,10.81,14.03,5.4,5.75,11.12,11.18,16.59,16.87,9.51,9.87,18.89,19.82,26.08,31.59,4.79,7.85,7.83,16.31,8.21,25.5.31,7.38-2.18,13.9-7.24,19.46-6.79,7.49-15.04,13.17-23.33,18.71-11.58,7.74-20.52,17.51-25.43,30.67-3.69,9.88-4.75,20.1-3.86,30.59,1.03,12.26,4.5,23.74,10.57,34.4,4.65,8.16,10.2,15.69,16.52,22.66,7.93,8.76,16.13,17.29,22.02,27.7,6.5,11.48,8.32,23.59,5.05,36.34-3.72,14.52-11.9,26.67-21.02,38.23-5.41,6.85-11.59,13.04-17.46,19.49-6.24,6.85-12.1,14-15.34,22.91-3.81,10.49-2.21,17.78,4.52,25.46,3.76,4.28,8.09,8.05,12.04,12.17,4.33,4.54,7.18,9.81,7.69,16.23.43,5.35-.94,10.23-3.2,14.99-5.07,10.7-14.19,17.13-23.91,22.93-12.14,7.26-25.59,11.9-37.9,18.82-8.16,4.58-15.75,9.7-21.11,17.79-6.12,9.23-5.48,20.29.07,29.06,5.7,9.02,13.58,15.9,21.66,22.63,11.04,9.2,22.43,18.04,32.15,28.71,4.44,4.87,8.65,9.94,11.24,16.2,2.31,5.58,1.16,10.35-2.62,14.66-2.63,3.01-5.76,5.5-8.87,8.02-5.67,4.58-10.42,9.95-11.44,17.51-.89,6.63,1.13,12.78,4.42,18.47,7.44,12.87,18.32,22.78,28.68,33.13.21.21.82.03,1.25.03"/>
  <path class="cls-1" d="m520.48.82c2.63,1.09,3.58,3.72,5.05,5.77,9.15,12.81,15.28,26.83,16.98,42.67,1.09,10.2-.54,20.03-3.62,29.62-2.71,8.43-6.81,16.32-10.74,24.25-5.33,10.74-9.44,21.84-9.26,34.09.12,8.01,2.56,15.44,5.77,22.61,4.88,10.89,12.17,20.13,19.99,29.06,8.44,9.64,18.79,17.34,27.12,27.05,5,5.83,9.65,11.79,11.86,19.42,2.54,8.75,1.49,17.12-2.71,24.83-7.12,13.06-18.42,21.7-31.78,27.75-7.2,3.26-14.67,5.94-21.03,10.84-3.06,2.36-5.19,5.31-6.34,8.95-1.88,5.94.76,10.23,5.05,14.06,3.13,2.79,6.69,4.96,9.98,7.53,1.62,1.26,3.26,2.56,4.65,3.98,4.81,4.91,4.74,9.74,1.28,15.84-3.59,6.32-9.29,10.71-15.24,14.67-8.42,5.6-17.61,9.92-25.84,15.9-10.64,7.73-18.45,17.43-21.15,30.37-1.57,7.49-.38,15.09,2.69,22.29,3.95,9.27,9.95,17.15,16.27,24.85,6.61,8.07,12.55,16.64,16.81,26.16,4.09,9.15,5.79,18.96,4.79,28.96-1.33,13.39-6.27,25.62-13.35,36.96-8.41,13.47-18.89,25.31-29.53,37.05-8.81,9.72-17.7,19.39-24.03,31.14-9.62,17.89-9.71,35.54.08,53.26,7.34,13.26,18.15,23.19,30.56,31.58,4.95,3.35,9.56,7.12,13.74,11.42,3.02,3.11,5.28,6.78,5.86,10.89.62,4.35-1.68,8.19-4.62,11.45-5.1,5.66-11.5,9.28-18.46,12.15-4.12,1.7-8.21,3.45-12.19,5.56-8.3,4.41-6.85,10.68-2.45,16.69,4.22,5.76,9.93,10.05,15.29,14.65,2.63,2.26,5.47,4.29,7.9,6.76.59.6.91-.1,1.31.12"/>
  <path class="cls-1" d="m560.62.5c3.81,1.67,5.02,5.51,6.95,8.64,3.96,6.44,7.02,13.28,9.09,20.65,2.44,8.69,2.74,17.37,1.46,26.16-1.98,13.54-8.14,25.7-13.12,38.22-3.34,8.4-6.05,16.94-7.16,25.86-1.58,12.62.8,24.77,6.01,36.31,4.94,10.94,12.37,20.11,20.98,28.39,7.43,7.14,15.49,13.72,21.03,22.62,3.33,5.36,5.02,11.18,5.48,17.52,1.12,15.4-4.86,28.21-13.72,40.19-6.14,8.3-13.72,15.16-21.07,22.28-4.71,4.57-9.2,9.39-12.03,15.34-3.24,6.82-1.98,10.96,3.73,15.28,2.99,2.26,6.3,4.02,9.3,6.29,5.63,4.27,6.21,11.61,3.77,17.59-2.99,7.33-8.54,12.52-14.65,17.21-7.42,5.71-15.54,10.36-23.3,15.55-5.96,3.99-11.56,8.37-16.14,13.82-4.32,5.15-6.83,11.15-7.13,18.11-.6,13.79,5.39,24.95,13.44,35.38,5.12,6.62,11.3,12.32,16.54,18.82,6.93,8.58,12.96,17.63,14.36,28.99,1.29,10.46-.69,20.4-4.81,29.95-6.96,16.15-17.86,29.67-28.98,43.03-9.47,11.38-18.87,22.84-26.68,35.43-6.39,10.3-11.83,21.29-13.31,33.44-2.1,17.2.34,32.2,18.3,44.02,5.9,3.88,12.38,6.29,18.83,8.87,5.5,2.2,11,4.34,15.63,8.26,7.37,6.25,8.69,14.75,4.11,23.29-4.24,7.91-10.85,13.75-17.56,19.39-6.26,5.26-12.89,10.06-19.4,15.02-1.51,1.15-2.87,2.46-4.11,3.86-5.1,5.71-4.68,9.55-.63,15.59,3.45,5.14,8.51,8.71,13.09,12.7,3.7,3.22,7.76,6.03,11.39,9.34.66.6,1.1,0,1.62.13"/>
  <path class="cls-1" d="m356.73,792.02c-1.19.22-1.6-.84-2.21-1.45-7.23-7.22-14.89-14.02-21.36-21.98-4.62-5.68-8.94-11.69-10.71-18.83-1.87-7.53-.16-13.69,7.21-19.41,5.15-4,11.35-6.32,16.54-10.23,2.16-1.63,3.81-3.68,4.86-6.32,1.56-3.94-.31-7.2-2.06-10.17-5.28-9-12.21-16.69-19.97-23.65-12.49-11.19-25.82-21.48-37.21-33.84-5.15-5.59-9.82-11.66-11.93-19.35-2.65-9.66.08-17.66,6.43-24.88,7.41-8.42,17.27-13.14,27.11-17.8,11.82-5.6,23.86-10.75,34.71-18.21,7.25-4.99,13.73-10.89,18.06-18.54,6.08-10.74,7.55-22.03,1.35-33.4-3.25-5.95-8.29-10.35-13.37-14.66-4.06-3.45-7.81-7.18-10.48-11.82-3.69-6.39-3.23-13.18-.89-19.72,3.49-9.75,9.26-18.25,15.87-26.14,9.82-11.72,19.59-23.49,28.28-36.07,6-8.69,10.72-18.12,12.41-28.66,1.64-10.28-1.36-19.65-7.3-28.01-5.34-7.51-11.97-13.89-18.39-20.48-9.23-9.48-17.37-19.87-22.63-32.16-3.68-8.61-5.92-17.69-5.7-27.07.4-16.31,6.57-29.58,20.89-38.66,7.35-4.66,15.44-7.41,23.32-10.72,6.26-2.63,12.55-5.14,17.84-9.58,6.2-5.2,8.36-11.6,7.46-19.78-1.38-12.6-7.82-22.5-15.1-32.18-10.89-14.49-24.06-26.94-36.01-40.47-6.39-7.23-13.03-14.26-17.53-22.94-1.46-2.82-2.53-5.78-2.83-8.93-.5-5.22,2.04-8.74,6.32-11.52,5.39-3.5,11.5-4.65,17.56-5.99,10.52-2.32,21.2-4.11,29.95-11.17,4.7-3.79,7.05-8.81,7.27-14.67.47-12.48-4.6-23.15-11.46-33.11-1.75-2.54-3.57-5.07-5.65-7.4-.59-.66-.94-1.38-1.95-1.24"/>
</svg>