<?xml version="1.0" encoding="utf-8"?>
<!-- Generator: Adobe Illustrator 28.0.0, SVG Export Plug-In . SVG Version: 6.00 Build 0)  -->
<svg version="1.1" id="Layer_1" xmlns="http://www.w3.org/2000/svg" xmlns:xlink="http://www.w3.org/1999/xlink" x="0px" y="0px"
	 viewBox="0 0 774 253" style="enable-background:new 0 0 774 253;" xml:space="preserve">
<style type="text/css">
	.st0{fill:#FFFFFF;}
</style>
<path class="st0" d="M236.2,34.7V23.5c2.1-0.1,4.1-0.3,6-0.3c26.3,0,52.6,0,78.9,0c6.5,0,6.3-0.1,6.5,6.6c0.1,4.1-1.3,5.3-5.2,5
	c-3.5-0.3-7-0.2-10.5,0c-8.2,0.4-13.1,5.1-13.2,13.2c-0.1,39.5-0.3,79,0.2,118.5c0.1,12.4,2.5,24.6,10.5,34.9
	c10.3,13.2,24.6,17.9,40.6,17.4c6.9-0.2,13.9-2,20.5-4.1c19.7-6.4,28.6-21.8,32.3-40.9c1.2-6.3,1.8-12.9,1.7-19.4
	c-0.4-29.8-1-59.7-1.7-89.5c-0.1-6.1-1-12.3-1.9-18.4c-1.2-8.1-5.8-11.8-14-11.8c-1.8,0-3.7-0.2-5.5,0c-3.8,0.5-5-1.1-4.9-4.8
	c0.1-6.9,0.2-6.9,7.4-6.8c18.8,0.2,37.6,0.2,56.4,0c6.9-0.1,7.9,1.5,5.6,11.5c-3.5,0-7.1,0-10.7,0c-7.8,0.1-11.6,3.3-12.7,11.2
	c-0.6,4.6-0.7,9.3-0.8,14c-0.5,31.5-0.4,63-1.6,94.5c-0.4,11.5-2.2,23.4-6,34.2c-9.9,28-31.6,41.9-60.4,45.2
	c-13.6,1.6-27.3,0.6-40.6-2.6c-28.1-6.6-45.8-25.6-49.1-54.2c-1.8-15.5-2.5-31.2-2.8-46.9c-0.4-26.5-0.1-53-0.1-79.5
	c0-2.2,0-4.3-0.2-6.5c-0.7-6.7-3.7-9.4-10.4-9.5C246,34.7,241.3,34.8,236.2,34.7L236.2,34.7z"/>
<path class="st0" d="M766.5,177.6c1.7,1.5,3,2.8,4.5,3.8c2.3,1.8,2.5,3.6,0.8,6c-20.3,27.5-46,45.5-81.3,46.9
	c-30.7,1.2-58.4-6.1-81.2-27.8c-15-14.3-23.5-32.3-27.5-52.2C573.4,113.4,582,77,611.9,47c17.3-17.4,39.2-25.5,63.4-27
	c23.9-1.5,46.8,2.6,68.1,14c3.6,1.9,4.9,0.7,6-2.8c0.8-2.7,0.3-6.8,5-7c3.1-0.2,5,0.7,5.4,4.3c2.1,20,4.3,40.1,6.8,60.1
	c0.5,4.2-2.3,4.1-4.7,5c-3.2,1.2-4.5-0.4-5.5-3.2C751.8,77.5,745,65.9,736,55.7c-19.7-22.3-52.3-30.2-78.3-18.7
	c-19.5,8.7-30,25-35.5,44.6c-9,32.6-5.7,64.2,10.6,93.8c10,18.3,24.4,32.9,45.6,36.9c33.1,6.2,61.5-3.5,83.7-29.5
	C763.5,181.2,764.8,179.5,766.5,177.6L766.5,177.6z"/>
<path class="st0" d="M506.6,20c11.8-0.4,23.2,1.6,34.1,6.1c4,1.6,7,1.2,9.7-2.2c0.8-1,1.9-2,3-2.6c2.8-1.7,4.9-1.1,5.3,2.4
	c1.5,15.9,2.9,31.8,4.5,47.8c0.4,4.3-2.9,4.5-5.4,4.9c-1.2,0.2-3.5-1.5-4-2.8c-4.4-11.3-10-21.9-18.8-30.4
	c-12.1-11.7-26.7-14.3-42.1-8.8c-22.5,8-27.7,41.3-8.5,55.4c9.1,6.7,20.2,10.6,30.6,15.2c7.7,3.4,16.1,5.5,23.7,9.1
	c21.7,10.3,33.8,27.2,34.4,51.8c0.5,24.6-6.7,45.4-28,59.4c-11.8,7.8-25.2,9.6-39.2,9c-16.2-0.6-31.2-4.3-44.5-14.1
	c-6.2-4.6-6.4-4.2-11.2,2.1c-1.2,1.6-4,2.2-6,3.2c-0.8-2-2.3-4.1-2.1-6c1.4-16.9,3.2-33.8,4.7-50.8c0.3-2.9,1.2-4.3,4.3-3.8
	c2.6,0.4,5.6-0.6,5.9,4c0.7,11.7,4.9,22.4,11.2,32.2c10.4,16.2,30.7,24.1,49.2,19c13.7-3.8,24-11.8,26.2-26.4
	c2.3-15.4-0.1-30.3-14.4-39.4c-9.2-5.9-19.6-9.6-29.5-14.5c-9.8-4.9-19.8-9.5-29.3-14.9C452,114.6,445.1,97.9,444,77.6
	C442.1,44,472.6,21,498.6,20C501.3,19.9,503.9,20,506.6,20L506.6,20z"/>
<g>
	<path class="st0" d="M4.6,20.7c34.9,8.2,66,2.7,93.5-20c27.3,22.9,58.6,27.8,93.2,20c1.2,7.3,2.8,14.3,3.3,21.3
		c5.5,70.1-14.6,131.7-62.3,183.6c-8.7,9.4-20,16.4-30.1,24.6c-2.6,2.1-4.7,1.9-7.6,0.1c-31.7-20.1-53.9-48.3-69.8-81.8
		C7.4,131.6-1.6,92.8,1,51.8C1.6,41.5,3.4,31.4,4.6,20.7L4.6,20.7z M6.9,99.4C10.3,119.8,16,139,24,157.6
		c14.7,34.1,35.5,63.6,66.3,85.2c8.2,5.8,8.3,5.8,16.5-0.2c47.8-35,71.3-84.3,82.4-140.8c0.6-3.1-1.1-3.8-3.1-4.6
		c-9.7-3.8-19.4-2.4-28.8,0.8c-14.9,5.2-29.8,5.5-44.5,0.1c-10.1-3.7-19.6-3.4-29.7,0.2c-13.1,4.7-26.6,5.4-40.2,0.9
		c-3.3-1.1-6.7-2-10.1-2.8C24,94.5,15.3,94.3,6.9,99.4L6.9,99.4z M133.6,84.3c-1.7-18.4-19.1-32.4-37.9-31.4
		c-16.7,0.9-32.8,16-32.6,31.5c6.3-1.3,12.7-1.9,18.4-4.1c11.5-4.4,22.5-4.2,34,0.1C121.2,82.5,127.4,83,133.6,84.3L133.6,84.3z
		 M190,34.4c-20.9,9.7-41.1,19.1-61.2,28.4c-0.1,0.6-0.1,1.2-0.1,1.8c2,0.6,4.2,2.2,6,1.8c18.1-4.8,36.2-10,54.3-15.2
		c1.1-0.3,2.7-2.1,2.7-3.2C191.3,43.7,190.6,39.5,190,34.4L190,34.4z M5.6,93.6L6.6,95c12.3-5.6,24.5-3.6,36.5,0.5
		c13.5,4.6,26.9,3.8,40.1-1c10.2-3.7,20-3.6,30.2,0c12.3,4.4,24.9,5.6,37.7,1.4c12.8-4.2,25.7-7.1,39.4-2.1
		c-0.8-1.8-1.8-3.1-3.2-3.7c-10.9-4.5-21.6-2.6-32.2,1.1c-13.8,4.7-27.6,4.8-41.1-0.2c-10.7-3.9-20.9-3.8-31.6,0
		c-12.5,4.5-25.3,5.3-38.2,1c-3.3-1.1-6.7-2-10.1-2.8c-8.4-2-16.8-2.4-24.9,1.2C7.7,91.2,6.8,92.6,5.6,93.6L5.6,93.6z M190.4,87.4
		c0.4-0.5,0.9-1.1,1.3-1.6c-1.2-1-2.3-2.4-3.7-2.9c-9.9-4-20-3.2-29.8,0.2c-16.3,5.8-32.3,5.3-48.4-0.6c-6.9-2.6-14.2-3.2-21.1-0.5
		c-17.9,6.9-35.6,6.8-53.6,0.3c-8.8-3.1-18.1-2.7-26.9,1c-1.3,0.6-2.3,2-3.4,3c0.3,0.5,0.7,1,1,1.5c12.5-5.9,24.8-3.8,37,0.2
		C56.4,92.6,69.7,92,83,87.1c9.8-3.6,19.4-4,29.3-0.3c14.1,5.3,28.2,5.7,42.5,0.7C166.5,83.5,178.4,82.1,190.4,87.4L190.4,87.4z
		 M67.5,62.9C47.3,53.5,27,44.1,6.2,34.5c-0.6,5.8-1.1,10.7-1.6,15.8c19.1,5.3,37.7,10.4,56.2,15.8C64.3,67.1,66.2,66.5,67.5,62.9z
		 M94.2,49.1c-1.6-12.2-3.3-24.2-5-36.8c-5.9,3-11.2,5.6-16.8,8.5C77.1,31,81.7,41,86.3,50.9C89.1,50.3,91.4,49.8,94.2,49.1z
		 M32,28.3C46,38.6,59.4,48.4,72.8,58.2c1.9-1.4,3.4-2.5,5-3.8C70,45.6,62.5,37.2,54.9,28.8c-1-1.1-3.1-2-4.6-1.9
		C44.5,27.1,38.8,27.8,32,28.3L32,28.3z M164,28.3c-7-0.7-12.9-1.3-18.8-1.7c-1-0.1-2.3,0.4-3,1.1c-8,8.8-15.9,17.7-24,26.8
		c2,1.4,3.6,2.5,5.1,3.6C136.9,48.2,150,38.6,164,28.3z M107,12.3c-1.7,12.4-3.3,24.5-5,36.9c2.8,0.6,5.1,1.1,7.9,1.6
		c4.6-10,9.2-19.9,13.8-29.9C118,17.9,112.7,15.2,107,12.3L107,12.3z M60.9,74.2c-19-1.4-37.7-2.8-56.8-4.3c0.3,3.8,0.5,7,0.7,10.7
		c13.1-5.6,25.5-4.1,38,0c5,1.6,10.2,2.4,15.5,3.6C59.3,80.5,60.1,77.5,60.9,74.2L60.9,74.2z M138,84.1c17.9-2.7,35.1-12.7,53.6-3.8
		V69.9c-18.9,1.4-37.3,2.9-56.2,4.3C136.4,77.9,137.2,80.7,138,84.1z M125.4,59.6c0.2,0.5,0.5,0.9,0.8,1.3c1.5-0.6,3.1-1.1,4.5-1.9
		c18.2-9.7,36.3-19.4,54.5-29.1c0.9-0.5,1.9-0.8,2.6-1.5c0.5-0.5,0.9-1.5,0.7-2.1c-0.2-0.5-1.4-1.1-1.9-0.9
		c-5.4,1.4-11.3,2-15.9,4.8c-14,8.3-27.5,17.5-41.1,26.4C128.1,57.6,126.7,58.7,125.4,59.6L125.4,59.6z M69.7,61.5
		c0.3-0.6,0.7-1.2,1-1.8c-1.3-0.9-2.5-1.9-3.8-2.7c-13.5-8.8-27.2-17.3-40.5-26.5c-5.8-4-12-4-19.3-5.3c0.9,1.9,1.1,3.2,1.9,3.6
		C29.2,39.8,49.4,50.7,69.7,61.5z M62.7,71.6c0.1-0.8,0.2-1.6,0.2-2.4c-19.4-4.2-38.7-8.5-58.3-12.7c-0.3,1.9-0.6,2.8-0.6,3.8
		c0,1.1,0.2,2.3,0.3,3.9C23.9,66.5,43.2,69.8,62.7,71.6L62.7,71.6z M133.5,69.3c0,0.7,0,1.4,0,2.1c1.6,0,3.1,0.2,4.7,0
		c16-2.1,31.9-4.3,47.9-6.4c6.7-0.9,7.1-1.4,5-8.3C171.9,60.8,152.7,65.1,133.5,69.3z M97.2,48.9c0.6,0.1,1.1,0.1,1.7,0.2
		c0.3-1.1,0.8-2.2,0.8-3.3c0.7-11.3,1.3-22.6,2-33.9C102,8.8,101.1,6,98,6.1c-2.9,0.1-3.4,2.9-3.2,5.7c0.7,11.1,1.3,22.3,2,33.4
		C96.8,46.5,97.1,47.7,97.2,48.9L97.2,48.9z M112.1,52.6c2.3-0.5,4-0.3,4.5-1c6.7-8.6,13.1-17.4,20-26.7c-2.9-0.9-5.1-1.5-7.5-2.3
		C123.6,32.4,118.2,41.9,112.1,52.6z M82.5,52.7c0.3-0.5,0.5-1,0.8-1.5c-4.5-7.9-9-15.8-13.5-23.8c-3.2-5.7-3.7-5.8-9.8-1.8
		c6.3,8.5,12.6,17,19.1,25.5C79.7,52,81.3,52.2,82.5,52.7L82.5,52.7z"/>
	<path class="st0" d="M106.4,112.3c1.7-0.8,3.7-1.8,5.6-2.8c0.7,6.1,1.4,11.7,1.9,17.3c0.1,1.2-0.2,2.8-0.9,3.8
		c-1.6,2.3-1.5,4-0.1,6.6c2.5,4.7-2.3,7.4-3.9,11c-1,2.1-2.5,4.3-2.6,6.5c-0.8,12.6-1.2,25.3-1.7,37.9c0,1.2,0.8,2.7,1.8,3.5
		c3.8,3.5,3.7,6.8-0.1,10c-1.2,1-2.2,2.7-2.4,4.2c-0.5,4.6-0.6,9.3-0.8,13.9c-0.1,3-1.2,5.3-4.5,5.5c-3.6,0.2-5-2.1-5.2-5.4
		c-0.2-3.7-0.3-7.3-0.5-11c-0.1-3.3,0-6.2-3.6-8.5c-3-1.9-2.2-5.4,0.2-8.3c1.2-1.4,2.3-3.5,2.3-5.3c-0.4-12.6-0.8-25.3-1.9-37.9
		c-0.3-3.1-2.6-6.2-4.7-8.8c-2.1-2.6-2.8-5-1.6-8.2c0.4-1,0.3-2.6-0.2-3.4c-2.9-4-2.3-8-0.7-12.3c1.4-3.9,2.1-8,3.2-12.6
		c1.9,0.8,4.8,1.9,8.3,3.2v-10.5C98.5,105.1,102.2,108.6,106.4,112.3L106.4,112.3z M91,203c4,3.2,8.4,2.1,12.7,1.2
		c1-1.2,2-2.5,3.1-3.7c-1.3-0.9-2.4-2.4-3.8-2.6c-3.1-0.4-6.3-0.3-9.5-0.1C89.9,198.2,89.4,199.5,91,203L91,203z M108.3,143.7
		c0.8-1.8,2.7-3.9,2.2-5.2c-0.5-1.4-3.2-2.5-5-2.6c-5.3-0.3-10.6-0.4-15.9,0c-1.6,0.1-3,2-4.5,3c1.2,1.4,2.3,2.9,3.5,4.4
		C95.2,143.4,101.8,143.5,108.3,143.7z M102.1,195.2c0.7-15,1.3-29.5,2-44.1h-6.9v44.1C97.2,195.2,102.1,195.2,102.1,195.2z
		 M98.5,108.3c-2.5,3.7-4.6,7.4-7.2,10.6c-4.3,5.4-4.3,10.4,0.3,13.9c-1.6-8.7-0.7-11.2,5.5-15.4c-5.2,11.2-5.2,11.6-0.7,15.6v-10.6
		c0.3,0,0.6,0,0.8,0c0.4,3.4,0.7,6.9,1.2,11.1C107.6,124.7,107,114.8,98.5,108.3L98.5,108.3z M94.7,208.5c0.3,5,0.5,10.6,1.1,16.1
		c0.1,1.1,1.6,2,2.5,3c0.8-0.9,2.3-1.8,2.3-2.8c0.2-5.9,0.1-11.7,0.1-18C99,207.3,97.3,207.8,94.7,208.5L94.7,208.5z M104.4,132.8
		c4.1,0.6,7-0.9,6.9-5c0-4.7-1.3-9.3-2-13.9h-1C107.1,120.1,105.8,126.5,104.4,132.8z M93.9,151.2c-0.6,0-1.1,0.1-1.7,0.1
		c0.7,14.4,1.3,28.8,2,43.2c0.5,0,1,0,1.5-0.1C95.1,180.1,94.5,165.6,93.9,151.2L93.9,151.2z M88.6,111.8c-1.5,3.9-2.9,7.4-4.3,10.9
		c-1.7,4.5-1.1,7.1,3.1,10.1c-3.5-7.8-0.3-13.4,5-18.6C90.8,113.2,89.6,112.5,88.6,111.8z M106.1,147.8c0-0.4,0-0.8-0.1-1.2H90
		c0,0.4,0,0.8,0,1.2C90.1,147.8,106.1,147.8,106.1,147.8z"/>
	<path class="st0" d="M144.1,114.4c1.2-0.5,2.7-1.1,5.2-2.1c-0.4,6.4-2,12.4-0.9,17.8c1.2,5.7-0.7,9.1-4.1,12.6
		c-0.4,0.4-0.3,1.3-0.4,1.9c-0.4,9.1-2.3,18.6-0.6,27.3c1.1,5.5,2,9.5-1,14.6c-1.4,2.4-0.1,6.3-0.7,9.3c-0.3,1.5-2.2,2.8-3.3,4.1
		c-1.2-1.2-3.1-2.3-3.6-3.8c-0.7-2.3-0.3-5-0.8-7.4c-0.6-2.4-2.1-4.5-2.7-6.8c-0.4-1.9-0.4-4,0-5.9c0.3-2.1,1.7-4.1,1.7-6.1
		c0-6.5-0.6-13-0.8-19.4c-0.1-4.7-2-8.5-3.9-12.8c-2.2-4.9-1.4-11.4-1.4-17.2c0-2.7,1-5.3,1.8-8.6c1.6,0.4,3.9,1.1,6.4,1.8v-7
		C138.4,109.5,141,111.7,144.1,114.4L144.1,114.4z M137.3,143.3c0,10.1,0,19.5,0.1,29c0,0.8,1.1,1.6,1.7,2.4c0.6-0.7,1.6-1.3,1.6-2
		c0.1-9.8,0.1-19.5,0.1-29.4H137.3L137.3,143.3z M138.6,112.6c-1.6,2.4-3.2,4.9-5,7.2c-2.1,2.7-2.9,5.3-1.6,7.9
		c1.1-2.8,2.3-5.7,3.9-9.6c-0.3,4.6-0.6,7.8-0.8,11c0.4,0,0.8,0,1.2,0.1c0.2-2.1,0.3-4.2,0.5-6.3c0.3,0,0.5,0.1,0.8,0.1
		c0.2,2,0.5,4,0.8,6.5C144.4,123.5,144.3,118.2,138.6,112.6L138.6,112.6z M137.9,137.4C137.9,137.4,137.9,137.4,137.9,137.4
		c2,0,4,0.3,5.9-0.1c1.1-0.2,2.1-1.5,3.1-2.4c-0.9-0.9-1.8-2.6-2.8-2.7c-4.1-0.3-8.3-0.3-12.4,0c-1,0.1-1.8,1.5-2.7,2.4
		c1,0.9,1.8,2.4,2.9,2.6C133.9,137.7,135.9,137.4,137.9,137.4L137.9,137.4z M138.2,177c-0.8,0-1.8-0.2-2.4,0.1
		c-1.2,0.5-2.2,1.4-3.3,2.1c1.1,0.8,2.1,1.9,3.2,2.2c1.7,0.4,3.7,0.3,5.4,0c1-0.2,1.9-1.4,2.8-2.1c-0.9-0.7-1.7-1.7-2.8-2.1
		C140.3,176.7,139.2,177,138.2,177L138.2,177z M143,129.6c5-0.6,6-5.3,2.5-11.6C144.8,121.5,143.9,125.4,143,129.6z M134.8,171h0.9
		v-26.5c-0.3,0-0.6,0-0.9,0V171L134.8,171z M138.2,197.5c0.3,0,0.7,0,1,0v-13.4c-0.3,0-0.7,0-1,0V197.5L138.2,197.5z"/>
	<path class="st0" d="M47.5,111.8c1.7,0.6,3.8,1.2,6.4,2.1v-7.2c3.4,3,6,5.3,8.8,7.7c1.2-0.5,2.8-1.1,5.3-2
		c-0.4,6.4-2,12.4-0.7,17.8c1.4,5.8-2.2,8.6-3.8,12.8c-1.7,4.6-1,10.2-1.3,15.3c-0.2,4.2-0.5,8.3-0.3,12.5c0.1,1.8,1.3,3.4,1.7,5.2
		c0.4,1.9,1.1,5.2,0.3,5.7c-3.9,2.4-2.7,6.1-3,9.4c-0.2,1.6,0.3,3.5-0.3,4.9c-0.7,1.6-2.3,2.7-3.5,4.1c-1.3-1.4-3.2-2.7-3.7-4.4
		c-0.7-2.1,0-4.7-0.4-6.9c-0.5-2.2-2-4.1-2.6-6.3c-0.5-1.9-0.8-4-0.5-5.9c0.4-2.4,2-4.7,2-7.1c-0.1-8-0.7-16-1-23.9
		c0-0.8,0.2-2.1-0.3-2.4c-5.4-3.9-4.1-10.2-5.7-15.4c-0.7-2.1,0.3-4.8,0.8-7.2C46,117.9,46.7,115.3,47.5,111.8z M49.7,136.8
		l-0.2-0.1c4.6,0.2,9.1,0.6,13.7,0.6c0.9,0,2.4-1.6,2.4-2.4c0-0.9-1.5-2.4-2.4-2.5c-4.3-0.3-8.6-0.2-12.9-0.1c-0.9,0-2.2,1.1-2.4,2
		C47.9,134.9,49.1,135.9,49.7,136.8L49.7,136.8z M56,143.5c0,9.5,0,18.8,0.1,28c0,1.1,0.9,2.1,1.4,3.2c0.6-1.1,1.7-2.2,1.8-3.4
		c0.5-8.1,0.7-16.2,1.3-24.3C60.9,143.4,59.7,142.5,56,143.5z M56.4,111.7c0,6.8-9.8,9.6-5.4,16.8c0.7-2.7,1.5-5.5,2.3-8.4
		c0.3,0.1,0.6,0.2,0.9,0.3c-0.3,2.7-0.5,5.3-0.8,7.9c0.4,0,0.8,0.1,1.1,0.1c0.4-1.9,0.8-3.9,1.5-7c0.4,3.4,0.7,5.6,1,8.2
		C63.1,123.3,63,118.4,56.4,111.7L56.4,111.7z M56.9,177c-0.1-0.3-0.3-0.6-0.4-0.9c-1.8,1-3.6,2-5.5,2.9c2.1,0.8,4.1,1.8,6.2,2.4
		c1,0.3,2.4,0.1,3.4-0.3c0.8-0.3,2-1.5,1.8-1.9c-0.3-0.9-1.2-1.8-2.1-2.1C59.3,176.7,58.1,177,56.9,177L56.9,177z M59,183.9
		c-4.1,1.7-4.7,7.9-1,13.8C58.3,193.2,58.6,188.7,59,183.9L59,183.9z M54.1,144.2c-0.4,0-0.8,0-1.2,0c0.5,9.3,1,18.6,1.5,27.9
		c-0.1,0-0.2,0-0.3,0V144.2L54.1,144.2z M61.6,129.7c5.1-1.1,5.7-3.8,2.7-11.4C63.5,121.7,62.5,125.6,61.6,129.7z"/>
	<path class="st0" d="M106.1,147.8h-16c0-0.4,0-0.8,0-1.2h16C106.1,147,106.1,147.4,106.1,147.8z"/>
</g>
</svg>
